<svg width="56" height="40" viewBox="0 0 56 40" fill="none" xmlns="http://www.w3.org/2000/svg">
<g id="Frame" clip-path="url(#clip0_11_48)">
<g id="Group">
<g id="Group_2" opacity="0.3">
<g id="Group_3" opacity="0.3">
<g id="Group_4" opacity="0.3">
<path id="Vector" opacity="0.3" d="M55.9362 32.2693C55.9362 34.097 48.5423 35.6573 38.1092 36.2806C35.8434 38.0127 29.2337 39.2665 21.431 39.2665C11.759 39.2665 3.9173 37.3397 3.9173 34.963C3.9173 34.8036 3.9527 34.6478 4.02174 34.4937C1.46921 33.8455 0 33.084 0 32.2693C0 29.8927 12.5219 27.9658 27.9681 27.9658C43.4143 27.9658 55.9362 29.8927 55.9362 32.2693Z" fill="#1A1A5A"/>
</g>
</g>
</g>
<g id="Group_5">
<g id="Group_6">
<g id="Group_7">
<g id="Group_8">
<path id="Vector_2" d="M53.9855 30.872C53.5925 30.8543 52.0419 31.5627 51.9587 30.6435C51.8755 29.7226 51.7215 25.2685 49.923 24.9179C48.1263 24.5672 47.4554 25.1446 46.7492 27.2503C46.4836 28.0437 46.4022 28.9363 46.3721 29.7421C46.3243 31.0774 46.4217 32.1843 46.0712 32.2409C45.5101 32.3348 43.9647 32.4588 43.9647 32.4588C43.9647 32.4588 43.0726 33.385 42.9841 31.823C42.9558 31.3395 42.9133 30.4168 42.9983 29.3064C43.1841 26.8288 43.9984 23.4267 47.0023 21.9568C51.3515 19.8281 53.7093 26.1239 53.7571 26.9563C53.8031 27.7887 54.3802 30.8897 53.9855 30.872Z" fill="white"/>
</g>
</g>
</g>
<g id="Group_9" opacity="0.3">
<g id="Group_10" opacity="0.3">
<g id="Group_11" opacity="0.3">
<path id="Vector_3" opacity="0.3" d="M46.1332 29.5559C46.0854 30.8912 46.4235 32.1841 46.073 32.2425C45.5119 32.3364 43.9665 32.4603 43.9665 32.4603C43.9665 32.4603 43.0744 33.3866 42.9859 31.8246C42.9576 31.3411 43.147 30.22 43.2319 29.1096C43.3718 29.5152 43.501 30.7283 44.7613 30.6876C45.4588 30.6646 45.8889 30.0394 46.1332 29.5559Z" fill="#1A1A5A"/>
</g>
</g>
</g>
<g id="Group_12" opacity="0.3">
<g id="Group_13" opacity="0.3">
<g id="Group_14" opacity="0.3">
<path id="Vector_4" opacity="0.3" d="M53.9217 28.1958C53.8881 29.5311 54.1288 30.824 53.8792 30.8824C53.4774 30.9763 52.3693 31.1002 52.3693 31.1002C52.3693 31.1002 51.7303 32.0265 51.6666 30.4644C51.6471 29.981 51.7816 28.8599 51.8418 27.7495C51.9427 28.1551 52.0348 29.3682 52.9375 29.3275C53.4385 29.3044 53.7465 28.6811 53.9217 28.1958Z" fill="#1A1A5A"/>
</g>
</g>
</g>
<g id="Group_15">
<g id="Group_16">
<g id="Group_17">
<path id="Vector_5" d="M46.3757 31.033C46.3757 31.033 46.1473 27.112 47.4431 25.6315C48.7388 24.1509 49.8257 24.8487 50.4098 25.2649C50.9939 25.6811 51.525 27.5158 51.7162 28.2366C51.9073 28.9574 52.2667 31.1641 51.4471 31.1889C50.6258 31.2172 46.3757 31.033 46.3757 31.033Z" fill="#B2B2B2"/>
</g>
</g>
</g>
<g id="Group_18">
<g id="Group_19">
<g id="Group_20">
<path id="Vector_6" d="M47.1669 21.9072C47.1669 21.9072 43.7363 22.6794 43.0867 28.8796C42.9911 29.7828 42.9557 30.8029 42.9982 31.9505C42.9982 31.9505 43.0672 32.7421 42.5203 32.7421C41.9751 32.7421 31.0215 32.8006 31.0215 32.8006L29.9523 26.9563L33.0607 24.3423L38.9871 20.1787L42.4725 21.4042L43.4726 21.7567L42.676 21.8063L47.1669 21.9072Z" fill="white"/>
</g>
</g>
</g>
<g id="Group_21" opacity="0.3">
<g id="Group_22" opacity="0.3">
<g id="Group_23" opacity="0.3">
<path id="Vector_7" opacity="0.3" d="M43 31.9522C43 31.9522 43.069 32.7438 42.522 32.7438C41.9768 32.7438 31.0233 32.8023 31.0233 32.8023L29.9541 26.958L33.0625 24.344L38.9889 20.1804L42.4742 21.4059L41.9945 21.7601C41.9945 21.7601 38.9853 22.7147 37.8931 26.958C36.801 31.2013 40.12 30.3867 41.1927 30.3867C41.6175 30.3867 42.7203 29.8678 43.0867 28.8795C42.9911 29.7827 42.9557 30.8028 43 31.9522Z" fill="#1A1A5A"/>
</g>
</g>
</g>
<g id="Group_24">
<g id="Group_25">
<g id="Group_26">
<path id="Vector_8" d="M44.2834 21.6061L39.4066 21.9709L36.8683 24.1776L35.9301 27.167L35.5478 32.8554C33.8874 32.859 29.9895 32.8607 28.2442 32.859C26.5449 32.8572 24.8225 32.8536 23.1161 32.8466C21.3778 32.8395 19.6555 32.8324 17.988 32.8218C16.2002 32.8111 14.4743 32.8005 12.8582 32.7881C10.973 32.774 9.23827 32.7598 7.73011 32.7474C7.5177 32.7456 7.31059 32.7438 7.1088 32.7421C5.63782 32.7297 4.41112 32.7173 3.51189 32.7067C2.57372 32.696 1.81787 31.9327 1.81787 30.9941V22.697C1.81787 22.6244 1.81787 22.5518 1.81964 22.4792C1.83734 20.7064 2.08339 18.9885 2.53123 17.3486C3.02687 15.528 3.77033 13.8049 4.72443 12.218C5.57055 10.8101 6.57953 9.51019 7.73011 8.33957C8.16026 7.90213 8.6081 7.48418 9.07542 7.08571C10.2313 6.09572 11.5005 5.22793 12.8582 4.50006C14.4531 3.64467 16.1736 2.98409 17.988 2.55019C19.6148 2.16058 21.3159 1.95337 23.0648 1.95337H23.1161C24.8845 1.95691 26.6015 2.17297 28.2442 2.57322C30.0568 3.01596 31.7791 3.68717 33.374 4.55319C34.6945 5.26867 35.9283 6.11874 37.0559 7.08394C37.5604 7.51429 38.0436 7.96766 38.5021 8.44229C39.6102 9.58458 40.5856 10.8508 41.4051 12.2145C42.3592 13.8013 43.1027 15.5245 43.6001 17.3451C43.9718 18.7176 44.2055 20.1415 44.2834 21.6061Z" fill="white"/>
</g>
</g>
</g>
<g id="Group_27" opacity="0.3">
<g id="Group_28" opacity="0.3">
<g id="Group_29" opacity="0.3">
<path id="Vector_9" opacity="0.3" d="M35.5478 32.8573C33.8874 32.8609 29.9895 32.8627 28.2442 32.8609C26.5449 32.8591 24.8225 32.8556 23.1161 32.8485C21.3778 32.8414 19.6555 32.8343 17.988 32.8237C16.2002 32.8131 14.4743 32.8024 12.8582 32.79C10.973 32.7759 9.23827 32.7617 7.73012 32.7493C7.5177 32.7475 7.31059 32.7458 7.1088 32.744C5.63782 32.7316 4.41112 32.7192 3.51189 32.7086C2.57372 32.6979 1.81787 31.9346 1.81787 30.996V23.1842C2.7525 24.6647 4.70142 26.4906 8.63642 26.4906H28.1114C30.6055 26.4906 32.9758 25.4847 34.7654 23.7473C35.9708 22.5767 37.925 21.4734 41.0015 21.4734C41.3591 21.4734 37.7356 22.4775 37.0825 24.0891C35.7159 27.4593 35.5478 32.8573 35.5478 32.8573Z" fill="#1A1A5A"/>
</g>
</g>
</g>
<g id="Group_30">
<g id="Group_31">
<g id="Group_32">
<path id="Vector_10" d="M13.2583 33.0378C13.1238 33.0378 12.991 33.0378 12.8565 33.036C10.8297 33.0219 9.15161 33.0077 7.72842 32.9953C7.62752 32.9935 7.53017 32.9935 7.43281 32.9917C7.32306 32.99 7.21508 32.99 7.1071 32.9882C5.90518 32.9776 4.72805 32.9652 3.51019 32.9528C2.99155 32.9475 2.50476 32.7403 2.14011 32.3719C1.77546 32.0035 1.57367 31.513 1.57367 30.9941V22.697C1.57367 22.6244 1.57367 22.55 1.57544 22.4774C1.59314 20.717 1.83565 18.9708 2.29588 17.2848C2.79152 15.466 3.53852 13.718 4.51563 12.0923C5.36706 10.6755 6.3902 9.35607 7.55672 8.16773C7.9904 7.72676 8.44709 7.29995 8.91795 6.8997C10.0915 5.89555 11.3802 5.01537 12.745 4.28572C14.3788 3.40908 16.1242 2.74672 17.9332 2.3146C19.6025 1.91436 21.3301 1.71069 23.0684 1.71069H23.1197C24.8775 1.71424 26.6228 1.92675 28.3062 2.33762C30.1153 2.78037 31.8606 3.45335 33.4945 4.34062C34.8221 5.06141 36.0753 5.92211 37.2188 6.8997C37.7286 7.33537 38.2207 7.7976 38.681 8.27399C39.8032 9.43045 40.791 10.7144 41.6176 12.0905C42.5947 13.7163 43.3417 15.4625 43.8391 17.283C44.2215 18.6839 44.4534 20.1326 44.5312 21.5919L44.0409 21.6184C43.9648 20.1945 43.7382 18.7795 43.3647 17.4141C42.8797 15.6378 42.1504 13.9323 41.1963 12.3455C40.3891 11.0013 39.4244 9.74746 38.3269 8.61757C37.8773 8.1518 37.3958 7.70019 36.8984 7.27515C35.7797 6.31882 34.5565 5.4776 33.259 4.77451C31.6624 3.9085 29.9577 3.24969 28.1894 2.81756C26.5432 2.41555 24.8368 2.20834 23.1197 2.2048H23.0702C21.3708 2.2048 19.6821 2.40315 18.0501 2.79454C16.2835 3.21604 14.5771 3.86599 12.9804 4.72138C11.6457 5.43509 10.3872 6.29579 9.24011 7.27692C8.78165 7.66831 8.33381 8.08627 7.91074 8.51662C6.76547 9.67308 5.76534 10.9624 4.93515 12.3455C3.98105 13.9323 3.25175 15.6378 2.76851 17.4141C2.3189 19.0593 2.08347 20.7648 2.06577 22.4827C2.06577 22.5535 2.064 22.6261 2.064 22.697V30.9941C2.064 31.7946 2.71363 32.4516 3.51373 32.4604C4.73336 32.4728 5.90872 32.4852 7.11064 32.4959C7.21862 32.4976 7.3266 32.4976 7.43635 32.4994C7.53371 32.4994 7.63283 32.5012 7.73373 32.503C9.15692 32.5153 10.835 32.5295 12.8618 32.5437C13.6619 32.549 14.4514 32.5366 15.2887 32.5207C16.1206 32.5065 16.9809 32.4906 17.8837 32.4959L17.8801 32.9882C16.9844 32.9829 16.1259 32.9988 15.2975 33.013C14.5948 33.0254 13.9274 33.0378 13.2583 33.0378Z" fill="#1A1A5A"/>
</g>
</g>
</g>
<g id="Group_33">
<g id="Group_34">
<g id="Group_35">
<path id="Vector_11" d="M35.3018 32.852C35.2487 31.9576 35.2628 30.9145 35.3443 29.751C35.4646 28.0278 35.7248 26.634 36.139 25.4864C36.6223 24.1476 37.3056 23.1611 38.226 22.4722C39.035 21.8683 39.9926 21.5353 40.9945 21.5123H41.0087C41.0706 21.5105 41.1344 21.5105 41.1963 21.5123L41.1857 22.0047C41.1291 22.0029 41.0724 22.0029 41.0158 22.0047H41.0034C40.1059 22.0259 39.2474 22.3234 38.5199 22.8671C36.9356 24.0519 36.0824 26.2497 35.8328 29.7864C35.7532 30.9287 35.7372 31.9506 35.7903 32.8237L35.3018 32.852Z" fill="#1A1A5A"/>
</g>
</g>
</g>
<g id="Group_36">
<g id="Group_37">
<g id="Group_38">
<path id="Vector_12" d="M38.3197 28.9009L37.8312 28.8477C38.0011 27.268 38.3056 25.9911 38.764 24.9409L39.2136 25.1375C38.7747 26.1416 38.4826 27.3725 38.3197 28.9009Z" fill="#1A1A5A"/>
</g>
</g>
</g>
<g id="Group_39">
<g id="Group_40">
<g id="Group_41">
<path id="Vector_13" d="M40.1129 32.8519C40.0598 31.9611 40.074 30.9179 40.1554 29.7509C40.1766 29.4445 40.2032 29.1399 40.2351 28.8477L40.7236 28.9008C40.6935 29.1877 40.667 29.4852 40.6457 29.7863C40.5661 30.9303 40.5519 31.9522 40.6032 32.8235L40.1129 32.8519Z" fill="#1A1A5A"/>
</g>
</g>
</g>
<g id="Group_42">
<g id="Group_43">
<g id="Group_44">
<path id="Vector_14" d="M41.6194 25.1394L41.1697 24.9429C41.6565 23.8254 42.1663 23.0904 42.8726 22.483C43.6284 21.833 44.3896 21.5355 45.3366 21.5125L45.3472 22.0048C44.51 22.0243 43.8656 22.2793 43.193 22.8566C42.5451 23.4127 42.0743 24.0946 41.6194 25.1394Z" fill="#1A1A5A"/>
</g>
</g>
</g>
<g id="Group_45">
<g id="Group_46">
<g id="Group_47">
<path id="Vector_15" d="M48.5812 21.5142H41.0015V22.0065H48.5812V21.5142Z" fill="#1A1A5A"/>
</g>
</g>
</g>
<g id="Group_48">
<g id="Group_49">
<g id="Group_50">
<g id="Group_51">
<path id="Vector_16" d="M23.116 1.91284H23.0647V1.99962H23.116V1.91284Z" fill="#1A1A5A"/>
</g>
</g>
</g>
<g id="Group_52">
<g id="Group_53">
<g id="Group_54">
<path id="Vector_17" d="M37.054 7.04517H9.07355V7.13194H37.054V7.04517Z" fill="#1A1A5A"/>
</g>
</g>
</g>
<g id="Group_55">
<g id="Group_56">
<g id="Group_57">
<path id="Vector_18" d="M41.4033 12.1758H4.72443V12.2626H41.4033V12.1758Z" fill="#1A1A5A"/>
</g>
</g>
</g>
<g id="Group_58">
<g id="Group_59">
<g id="Group_60">
<path id="Vector_19" d="M43.5983 17.3062H2.53125V17.3929H43.5983V17.3062Z" fill="#1A1A5A"/>
</g>
</g>
</g>
<g id="Group_61">
<g id="Group_62">
<g id="Group_63">
<path id="Vector_20" d="M38.5002 22.437H1.81781V22.5238H38.5002V22.437Z" fill="#1A1A5A"/>
</g>
</g>
</g>
<g id="Group_64">
<g id="Group_65">
<g id="Group_66">
<path id="Vector_21" d="M35.8468 27.5693H1.81781V27.6561H35.8468V27.5693Z" fill="#1A1A5A"/>
</g>
</g>
</g>
</g>
<g id="Group_67">
<g id="Group_68">
<g id="Group_69">
<path id="Vector_22" d="M37.0542 6.84106H9.07373V7.3334H37.0542V6.84106Z" fill="#1A1A5A"/>
</g>
</g>
</g>
<g id="Group_70">
<g id="Group_71">
<g id="Group_72">
<path id="Vector_23" d="M41.4034 11.9736H4.72449V12.466H41.4034V11.9736Z" fill="#1A1A5A"/>
</g>
</g>
</g>
<g id="Group_73">
<g id="Group_74">
<g id="Group_75">
<path id="Vector_24" d="M43.5984 17.1042H2.53131V17.5966H43.5984V17.1042Z" fill="#1A1A5A"/>
</g>
</g>
</g>
<g id="Group_76">
<g id="Group_77">
<g id="Group_78">
<path id="Vector_25" d="M38.5003 22.2346H1.81787V22.727H38.5003V22.2346Z" fill="#1A1A5A"/>
</g>
</g>
</g>
<g id="Group_79">
<g id="Group_80">
<g id="Group_81">
<path id="Vector_26" d="M35.8469 27.3652H1.81787V27.8576H35.8469V27.3652Z" fill="#1A1A5A"/>
</g>
</g>
</g>
<g id="Group_82">
<g id="Group_83">
<g id="Group_84">
<path id="Vector_27" d="M38.5004 32.4961H7.10712V32.9884H38.5004V32.4961Z" fill="#1A1A5A"/>
</g>
</g>
</g>
<g id="Group_85">
<g id="Group_86">
<g id="Group_87">
<g id="Group_88">
<path id="Vector_28" d="M38.7465 12.218H38.2544V17.3486H38.7465V12.218Z" fill="#1A1A5A"/>
</g>
</g>
</g>
<g id="Group_89">
<g id="Group_90">
<g id="Group_91">
<path id="Vector_29" d="M33.6184 17.3503H33.1263V22.4809H33.6184V17.3503Z" fill="#1A1A5A"/>
</g>
</g>
</g>
<g id="Group_92">
<g id="Group_93">
<g id="Group_94">
<path id="Vector_30" d="M33.6184 27.6116H33.1263V32.8555H33.6184V27.6116Z" fill="#1A1A5A"/>
</g>
</g>
</g>
<g id="Group_95">
<g id="Group_96">
<g id="Group_97">
<path id="Vector_31" d="M33.6184 7.0874H33.1263V12.2197H33.6184V7.0874Z" fill="#1A1A5A"/>
</g>
</g>
</g>
<g id="Group_98">
<g id="Group_99">
<g id="Group_100">
<path id="Vector_32" d="M28.4903 12.218H27.9982V17.3486H28.4903V12.218Z" fill="#1A1A5A"/>
</g>
</g>
</g>
<g id="Group_101">
<g id="Group_102">
<g id="Group_103">
<path id="Vector_33" d="M28.4903 32.7422H27.9982V32.8608H28.4903V32.7422Z" fill="#1A1A5A"/>
</g>
</g>
</g>
<g id="Group_104">
<g id="Group_105">
<g id="Group_106">
<path id="Vector_34" d="M28.4903 22.481H27.9982V27.6133H28.4903V22.481Z" fill="#1A1A5A"/>
</g>
</g>
</g>
<g id="Group_107">
<g id="Group_108">
<g id="Group_109">
<path id="Vector_35" d="M28.4903 2.5769H27.9982V7.08762H28.4903V2.5769Z" fill="#1A1A5A"/>
</g>
</g>
</g>
<g id="Group_110">
<g id="Group_111">
<g id="Group_112">
<path id="Vector_36" d="M23.3623 17.3503H22.8702V22.4809H23.3623V17.3503Z" fill="#1A1A5A"/>
</g>
</g>
</g>
<g id="Group_113">
<g id="Group_114">
<g id="Group_115">
<path id="Vector_37" d="M23.3623 27.6116H22.8702V32.8484H23.3623V27.6116Z" fill="#1A1A5A"/>
</g>
</g>
</g>
<g id="Group_116">
<g id="Group_117">
<g id="Group_118">
<path id="Vector_38" d="M23.3623 7.0874H22.8702V12.2197H23.3623V7.0874Z" fill="#1A1A5A"/>
</g>
</g>
</g>
<g id="Group_119">
<g id="Group_120">
<g id="Group_121">
<path id="Vector_39" d="M18.2323 2.55371H17.7402V7.08745H18.2323V2.55371Z" fill="#1A1A5A"/>
</g>
</g>
</g>
<g id="Group_122">
<g id="Group_123">
<g id="Group_124">
<path id="Vector_40" d="M18.2323 22.481H17.7402V27.6133H18.2323V22.481Z" fill="#1A1A5A"/>
</g>
</g>
</g>
<g id="Group_125">
<g id="Group_126">
<g id="Group_127">
<path id="Vector_41" d="M18.2323 32.7422H17.7402V32.8237H18.2323V32.7422Z" fill="#1A1A5A"/>
</g>
</g>
</g>
<g id="Group_128">
<g id="Group_129">
<g id="Group_130">
<path id="Vector_42" d="M18.2323 12.218H17.7402V17.3486H18.2323V12.218Z" fill="#1A1A5A"/>
</g>
</g>
</g>
<g id="Group_131">
<g id="Group_132">
<g id="Group_133">
<path id="Vector_43" d="M13.1044 7.0874H12.6123V12.2197H13.1044V7.0874Z" fill="#1A1A5A"/>
</g>
</g>
</g>
<g id="Group_134">
<g id="Group_135">
<g id="Group_136">
<path id="Vector_44" d="M13.1044 27.6116H12.6123V32.79H13.1044V27.6116Z" fill="#1A1A5A"/>
</g>
</g>
</g>
<g id="Group_137">
<g id="Group_138">
<g id="Group_139">
<path id="Vector_45" d="M13.1044 17.3503H12.6123V22.4809H13.1044V17.3503Z" fill="#1A1A5A"/>
</g>
</g>
</g>
<g id="Group_140">
<g id="Group_141">
<g id="Group_142">
<path id="Vector_46" d="M7.97629 32.7422H7.48419V32.7475H7.97629V32.7422Z" fill="#1A1A5A"/>
</g>
</g>
</g>
<g id="Group_143">
<g id="Group_144">
<g id="Group_145">
<path id="Vector_47" d="M7.97629 22.481H7.48419V27.6133H7.97629V22.481Z" fill="#1A1A5A"/>
</g>
</g>
</g>
<g id="Group_146">
<g id="Group_147">
<g id="Group_148">
<path id="Vector_48" d="M7.97629 12.218H7.48419V17.3486H7.97629V12.218Z" fill="#1A1A5A"/>
</g>
</g>
</g>
</g>
<g id="Group_149">
<g id="Group_150">
<g id="Group_151">
<path id="Vector_49" d="M44.0514 24.7939H36.5833V25.2863H44.0514V24.7939Z" fill="#1A1A5A"/>
</g>
</g>
</g>
<g id="Group_152">
<g id="Group_153">
<g id="Group_154">
<path id="Vector_50" d="M43.1434 28.6282H35.6699V29.1205H43.1434V28.6282Z" fill="#1A1A5A"/>
</g>
</g>
</g>
<g id="Group_155">
<g id="Group_156">
<g id="Group_157">
<path id="Vector_51" d="M43.1828 28.6297L43.1025 29.1155L46.3351 29.6508L46.4154 29.1651L43.1828 28.6297Z" fill="#1A1A5A"/>
</g>
</g>
</g>
<g id="Group_158">
<g id="Group_159">
<g id="Group_160">
<path id="Vector_52" d="M44.1651 24.8228L43.9384 25.2598L46.9865 26.8423L47.2131 26.4053L44.1651 24.8228Z" fill="#1A1A5A"/>
</g>
</g>
</g>
<g id="Group_161">
<g id="Group_162">
<g id="Group_163">
<path id="Vector_53" d="M43.1045 32.9883H38.5004V32.496H42.7699C42.7345 31.6689 42.7522 30.725 42.8266 29.6819C42.9469 27.9746 43.2071 26.5915 43.6214 25.4527C44.1046 24.1245 44.7879 23.1469 45.7101 22.4633C46.5509 21.8399 47.544 21.5105 48.583 21.5105C49.6221 21.5105 50.6169 21.8399 51.456 22.4633C53.2172 23.7685 54.1873 26.1983 54.3395 29.689C54.3643 30.2486 54.3554 30.4682 54.3501 30.6293C54.3466 30.709 54.3448 30.7675 54.3483 30.8472L54.3554 31.0686L51.7197 31.421L51.7232 31.1376C51.7268 30.8348 51.6737 29.8714 51.64 29.5154C51.5338 28.4121 51.3568 27.5336 51.0948 26.8323C50.8948 26.2957 50.6435 25.8636 50.3479 25.5484C49.9956 25.1747 49.5849 24.971 49.1601 24.9586C48.7477 24.9462 48.3423 25.118 47.99 25.4527C47.9564 25.4846 47.9263 25.5147 47.8945 25.5484C47.5988 25.8636 47.3475 26.294 47.1475 26.8323C46.8872 27.5336 46.7085 28.4103 46.6023 29.5154C46.5704 29.8519 46.5438 30.2167 46.5244 30.5992C46.4943 31.2191 46.5067 31.4334 46.5279 31.7592C46.535 31.8797 46.5438 32.0178 46.5527 32.1931L46.5615 32.411L43.1045 32.9883ZM48.583 22.0011C47.6785 22.0011 46.774 22.2862 46.0022 22.86C44.4179 24.0342 43.5647 26.2125 43.3169 29.7173C43.2443 30.7356 43.2248 31.6583 43.2602 32.4641L46.05 31.9983C46.0464 31.9239 46.0411 31.8549 46.0376 31.7929C46.0163 31.4635 46.0004 31.2244 46.034 30.578C46.0535 30.1884 46.0801 29.8147 46.1137 29.4711C46.2234 28.3253 46.4111 27.4061 46.6872 26.6641C46.9138 26.0566 47.1917 25.5838 47.5369 25.2154C47.5758 25.1747 47.613 25.1357 47.6537 25.0985C48.1033 24.6717 48.6291 24.4557 49.176 24.4698C49.7354 24.4858 50.2647 24.7426 50.7072 25.2154C51.0524 25.5838 51.3303 26.0566 51.5569 26.6641C51.833 27.4061 52.0206 28.3235 52.1304 29.4711C52.1587 29.7633 52.1976 30.4345 52.2118 30.8631L53.8616 30.6435C53.8616 30.6347 53.8616 30.624 53.8633 30.6152C53.8686 30.4629 53.8775 30.2539 53.8527 29.7137C53.7076 26.379 52.803 24.0749 51.1674 22.8618C50.3921 22.288 49.4876 22.0011 48.583 22.0011Z" fill="#1A1A5A"/>
</g>
</g>
</g>
<g id="Group_164">
<g id="Group_165">
<g id="Group_166">
<path id="Vector_54" d="M46.2643 30.8722L46.2579 31.3645L51.7978 31.4374L51.8043 30.9451L46.2643 30.8722Z" fill="#1A1A5A"/>
</g>
</g>
</g>
<g id="Group_167">
<g id="Group_168">
<g id="Group_169">
<path id="Vector_55" d="M48.9849 21.76H48.4928V24.7583H48.9849V21.76Z" fill="#1A1A5A"/>
</g>
</g>
</g>
<g id="Group_170">
<g id="Group_171">
<g id="Group_172">
<path id="Vector_56" d="M52.257 23.6737L50.6815 25.6785L51.0683 25.9828L52.6438 23.978L52.257 23.6737Z" fill="#1A1A5A"/>
</g>
</g>
</g>
<g id="Group_173">
<g id="Group_174">
<g id="Group_175">
<path id="Vector_57" d="M53.8531 27.7897L51.7703 28.6458L51.9573 29.1012L54.0401 28.2451L53.8531 27.7897Z" fill="#1A1A5A"/>
</g>
</g>
</g>
<g id="Group_176">
<g id="Group_177">
<g id="Group_178">
<path id="Vector_58" d="M51.6631 28.6282H46.427V29.1205H51.6631V28.6282Z" fill="#1A1A5A"/>
</g>
</g>
</g>
<g id="Group_179">
<g id="Group_180">
<g id="Group_181">
<path id="Vector_59" d="M50.7267 25.5854H47.367V26.0778H50.7267V25.5854Z" fill="#1A1A5A"/>
</g>
</g>
</g>
<g id="Group_182">
<g id="Group_183">
<g id="Group_184">
<path id="Vector_60" d="M50.1711 28.8659L49.6794 28.8843L49.763 31.1283L50.2547 31.11L50.1711 28.8659Z" fill="#1A1A5A"/>
</g>
</g>
</g>
<g id="Group_185">
<g id="Group_186">
<g id="Group_187">
<path id="Vector_61" d="M47.613 28.8815L47.1209 28.8691C47.1439 27.9694 47.1368 26.4287 47.0147 26.1205L47.4732 25.9417C47.6661 26.4322 47.6236 28.4759 47.613 28.8815Z" fill="#1A1A5A"/>
</g>
</g>
</g>
</g>
<g id="Group_188">
<g id="Group_189">
<g id="Group_190">
<path id="Vector_62" d="M30.5825 9.08691C30.5825 9.08691 32.2128 11.0262 32.2571 12.8202C32.3013 14.6142 31.8305 15.172 31.4198 15.1384C31.0091 15.1047 31.0003 11.0811 30.8321 10.6914C30.6639 10.3 30.5825 9.08691 30.5825 9.08691Z" fill="white"/>
</g>
</g>
</g>
<g id="Group_191">
<g id="Group_192">
<g id="Group_193">
<path id="Vector_63" d="M25.782 4.08398H25.7307V4.57632H25.782V4.08398Z" fill="#1A1A5A"/>
</g>
</g>
</g>
<g id="Group_194">
<g id="Group_195">
<g id="Group_196">
<path id="Vector_64" d="M32.3598 26.7067C32.3155 26.6837 32.2713 26.6589 32.2288 26.6341C30.4356 25.6246 28.7646 23.9705 28.1132 21.9392C28.1044 21.9109 28.0937 21.879 28.0867 21.8507C28.0849 21.8453 28.0831 21.8383 28.0814 21.8329L31.7172 19.9982L31.8075 19.9521C31.8075 19.9521 32.7935 21.3654 34.2149 24.1104C34.3866 24.4416 34.5034 24.7498 34.5725 25.0296C34.6096 25.173 34.6327 25.3076 34.645 25.4351C34.7813 26.8378 33.5865 27.3744 32.3598 26.7067Z" fill="#575B5A"/>
</g>
</g>
</g>
<g id="Group_197" opacity="0.35">
<g id="Group_198" opacity="0.35">
<g id="Group_199" opacity="0.35">
<path id="Vector_65" opacity="0.35" d="M34.5725 25.0296C34.268 24.8047 33.7636 24.3495 33.1352 23.4747C32.4059 22.4599 31.9386 20.8784 31.7173 19.9982L31.8076 19.9521C31.8076 19.9521 32.7935 21.3654 34.2149 24.1104C34.3849 24.4434 34.5017 24.7498 34.5725 25.0296Z" fill="white"/>
</g>
</g>
</g>
<g id="Group_200" opacity="0.35">
<g id="Group_201" opacity="0.35">
<g id="Group_202" opacity="0.35">
<path id="Vector_66" opacity="0.35" d="M32.3598 26.7067C32.3155 26.6836 32.2713 26.6588 32.2288 26.634C30.4356 25.6246 28.7646 23.9705 28.1132 21.9391C28.1044 21.9108 28.0938 21.8789 28.0867 21.8506C28.5965 22.5183 31.0764 25.6458 33.0147 25.8424C34.0609 25.9487 34.4857 25.7096 34.645 25.4369C34.7813 26.8377 33.5865 27.3743 32.3598 26.7067Z" fill="black"/>
</g>
</g>
<g id="Group_203" opacity="0.35">
<g id="Group_204" opacity="0.35">
<path id="Vector_67" opacity="0.35" d="M33.3846 27.0361C33.0554 27.0361 32.696 26.9386 32.3402 26.7456C32.2978 26.7226 32.2535 26.6978 32.2075 26.6712C31.2693 26.1435 30.4055 25.4616 29.7116 24.6983C28.9363 23.8465 28.384 22.9238 28.0742 21.9533C28.0636 21.9179 28.0548 21.8895 28.0459 21.863L27.9822 21.6416L28.122 21.824C28.6017 22.4527 31.0941 25.6033 33.02 25.7999C34.0856 25.9079 34.4715 25.6511 34.6078 25.4156L34.6751 25.3005L34.6874 25.4333C34.7476 26.0549 34.5547 26.549 34.1422 26.8218C33.9263 26.9652 33.6661 27.0361 33.3846 27.0361ZM28.2034 22.072C28.8212 23.85 30.2887 25.4917 32.25 26.5968C32.296 26.6234 32.3385 26.6464 32.381 26.6695C33.0129 27.013 33.6537 27.0431 34.0944 26.7492C34.452 26.5118 34.6326 26.0921 34.6096 25.559C34.3547 25.8583 33.8165 25.9664 33.0094 25.8849C32.1792 25.7999 31.1613 25.1854 29.9842 24.0537C29.2 23.301 28.5486 22.5112 28.2034 22.072Z" fill="#1A1A5A"/>
</g>
</g>
</g>
<g id="Group_205">
<g id="Group_206">
<g id="Group_207">
<path id="Vector_68" d="M33.3847 27.2362C33.0218 27.2362 32.6271 27.1317 32.2429 26.9227C32.1934 26.8962 32.1491 26.8714 32.1066 26.8484C31.149 26.31 30.2692 25.614 29.5594 24.8365C28.7646 23.9634 28.1982 23.0142 27.8778 22.0153V22.0135C27.8654 21.9764 27.8548 21.9392 27.8441 21.9037C27.8052 21.7727 27.8796 21.6363 28.0105 21.5991C28.1415 21.5602 28.2778 21.6346 28.315 21.7656C28.3256 21.7993 28.3362 21.8329 28.3469 21.8666C28.9204 23.6517 30.379 25.3111 32.3491 26.4198L32.3509 26.4216C32.3881 26.4428 32.4306 26.4658 32.4766 26.4906C33.1103 26.8342 33.7511 26.8289 34.1104 26.4765C34.5459 26.0496 34.5034 25.2067 33.9954 24.2237C32.5987 21.5248 31.6163 20.1062 31.6057 20.092C31.5278 19.9804 31.5544 19.8281 31.6659 19.7502C31.7774 19.6723 31.9296 19.6989 32.0075 19.8104C32.0181 19.8246 33.02 21.2697 34.4308 23.9971C34.7459 24.6081 34.9052 25.1695 34.8999 25.6689C34.8964 26.1435 34.7424 26.5438 34.4538 26.8271C34.1777 27.0981 33.8007 27.2362 33.3847 27.2362Z" fill="#1A1A5A"/>
</g>
</g>
</g>
<g id="Group_208">
<g id="Group_209">
<g id="Group_210">
<path id="Vector_69" d="M25.4456 35.427C25.4456 35.427 26.9998 37.8037 28.4513 37.1537C29.9028 36.5038 29.6815 35.8662 30.2126 35.8538C30.7454 35.8414 31.6021 35.5581 31.1401 34.7381C30.6764 33.9181 29.2284 33.4187 29.2284 33.4187C29.2284 33.4187 25.8687 33.9943 25.4456 35.427Z" fill="#FEC212"/>
</g>
</g>
</g>
<g id="Group_211">
<g id="Group_212">
<g id="Group_213">
<path id="Vector_70" d="M27.9256 37.5133C26.536 37.5133 25.3005 35.652 25.2403 35.5617L25.1783 35.466L25.2102 35.3562C25.4085 34.6833 26.1501 34.1095 27.4123 33.6543C28.315 33.3285 29.1505 33.1832 29.1859 33.1762L29.2479 33.1655L29.3081 33.1868C29.37 33.208 30.8516 33.7269 31.3543 34.6177C31.5986 35.0499 31.526 35.3598 31.4216 35.5422C31.1968 35.9371 30.6339 36.0894 30.2197 36.1001C30.1223 36.1018 30.0958 36.1213 29.9524 36.3108C29.7506 36.5765 29.4444 36.9785 28.5522 37.3787C28.3416 37.4726 28.1327 37.5133 27.9256 37.5133ZM25.72 35.3917C26.0227 35.8132 27.2636 37.4177 28.3504 36.9289C29.1275 36.5818 29.3789 36.2524 29.5612 36.0115C29.7099 35.8167 29.8621 35.6148 30.2073 35.6077C30.5153 35.6006 30.8835 35.4926 30.9932 35.2996C31.0534 35.1933 31.0304 35.0446 30.926 34.8586C30.6003 34.2813 29.6267 33.8279 29.2072 33.672C29.0001 33.711 28.2991 33.8544 27.5733 34.1183C26.5608 34.4867 25.9253 34.9241 25.72 35.3917Z" fill="#1A1A5A"/>
</g>
</g>
</g>
<g id="Group_214" opacity="0.3">
<g id="Group_215" opacity="0.3">
<g id="Group_216" opacity="0.3">
<path id="Vector_71" opacity="0.3" d="M30.795 34.1094C30.3171 34.7611 28.9611 36.1071 26.0245 35.8344C25.8563 35.6236 25.7607 35.4749 25.7607 35.4749C26.1838 34.0421 29.5417 33.4666 29.5417 33.4666C29.5417 33.4666 30.2197 33.7021 30.795 34.1094Z" fill="#1A1A5A"/>
</g>
</g>
</g>
<g id="Group_217">
<g id="Group_218">
<g id="Group_219">
<path id="Vector_72" d="M18.0854 35.427C18.0854 35.427 16.5312 37.8037 15.0797 37.1537C13.6282 36.5038 13.8495 35.8662 13.3184 35.8538C12.7856 35.8414 11.9289 35.5581 12.3909 34.7381C12.8547 33.9181 14.3026 33.4187 14.3026 33.4187C14.3026 33.4187 17.6623 33.9943 18.0854 35.427Z" fill="#FEC212"/>
</g>
</g>
</g>
<g id="Group_220">
<g id="Group_221">
<g id="Group_222">
<path id="Vector_73" d="M15.6055 37.5133C15.3984 37.5133 15.1896 37.4726 14.9789 37.3787C14.0868 36.9802 13.7805 36.5765 13.5787 36.3108C13.4354 36.1213 13.4106 36.1018 13.3115 36.1001C12.8972 36.0894 12.3343 35.9389 12.1095 35.5422C12.0051 35.358 11.9325 35.0499 12.1768 34.6177C12.6795 33.7269 14.1611 33.2098 14.2231 33.1868L14.2833 33.1655L14.3452 33.1762C14.3806 33.1815 15.2161 33.3267 16.1189 33.6543C17.381 34.1112 18.1209 34.6833 18.3209 35.3562L18.3528 35.466L18.2908 35.5617C18.2307 35.6538 16.9951 37.5133 15.6055 37.5133ZM14.324 33.6738C14.0584 33.7747 12.9663 34.2193 12.6034 34.8604C12.499 35.0463 12.476 35.1951 12.5361 35.3013C12.6459 35.4944 13.0141 35.6024 13.3221 35.6095C13.6672 35.6184 13.8195 35.8185 13.9682 36.0133C14.1505 36.2541 14.4019 36.5818 15.1789 36.9307C16.2676 37.4177 17.5084 35.8149 17.8094 35.3934C17.6058 34.9259 16.9685 34.4885 15.956 34.1219C15.2338 33.858 14.5346 33.7145 14.324 33.6738Z" fill="#1A1A5A"/>
</g>
</g>
</g>
<g id="Group_223" opacity="0.3">
<g id="Group_224" opacity="0.3">
<g id="Group_225" opacity="0.3">
<path id="Vector_74" opacity="0.3" d="M12.736 34.1094C13.214 34.7611 14.5699 36.1071 17.5065 35.8344C17.6747 35.6236 17.7703 35.4749 17.7703 35.4749C17.3472 34.0421 13.9893 33.4666 13.9893 33.4666C13.9893 33.4666 13.3113 33.7021 12.736 34.1094Z" fill="#1A1A5A"/>
</g>
</g>
</g>
<g id="Group_226">
<g id="Group_227">
<g id="Group_228">
<path id="Vector_75" d="M32.9157 26.7546V26.8024C32.9121 27.9712 32.7422 29.087 32.3669 30.1017C31.6412 31.8302 29.2904 35.103 26.4671 35.6928C25.1306 35.9726 23.5039 36.1178 21.5355 36.1178C16.6411 36.1178 14.2337 34.0263 12.437 32.5121C12.4087 32.489 12.3821 32.466 12.3538 32.443C12.3343 32.427 12.3166 32.4093 12.2972 32.3934C11.29 31.4619 10.8226 29.7511 10.6633 27.9004C10.6474 27.7321 10.635 27.5621 10.6262 27.3921C10.6226 27.3213 10.6191 27.2203 10.6173 27.1194C10.6155 27.0167 10.6138 26.9157 10.612 26.8466V26.7988C10.6704 25.8726 10.7713 24.9871 10.9448 24.075C11.1979 22.7379 11.605 21.3442 12.2511 19.6759C12.7362 18.4273 13.1256 16.961 13.0282 15.654C12.9911 15.1616 12.9734 14.6569 12.9734 14.1415C12.9734 13.6404 12.9893 13.148 13.0247 12.6681C13.0743 12.0004 13.161 11.3558 13.2937 10.7412C13.4159 10.1728 13.5787 9.63083 13.7876 9.12078V9.11901C13.8071 9.08182 13.8266 9.04286 13.846 9.00567C14.7541 7.29489 16.2782 5.95956 18.6289 5.23876C18.6289 5.23876 18.6307 5.23876 18.6325 5.23876C19.5246 4.96603 20.5371 4.78008 21.6806 4.69507L21.4133 4.67205C21.2239 4.15846 20.3123 3.26234 21.1213 2.51144C21.778 1.90044 22.6188 2.74875 22.8206 3.41818C22.8436 3.49257 22.941 3.51028 22.9888 3.44829C23.01 3.41996 23.0348 3.38985 23.0613 3.3562C23.3977 2.94533 24.0986 2.21568 24.681 2.45122C25.4953 2.7824 25.0704 4.02563 24.6527 4.72518C24.8421 4.74643 25.028 4.77299 25.2103 4.8031C25.2244 4.80487 25.2386 4.80664 25.2545 4.81018C25.2882 4.8155 25.32 4.82258 25.3519 4.82789C25.3572 4.82967 25.3625 4.82967 25.3678 4.83144C25.4192 4.84206 25.4705 4.85092 25.5201 4.85977C25.5324 4.86331 25.5448 4.86509 25.5572 4.86863C25.6068 4.87925 25.6564 4.88988 25.7041 4.90051C25.7165 4.90405 25.7289 4.90582 25.7413 4.90936C25.7909 4.91999 25.8404 4.93238 25.8882 4.94478C25.9006 4.94655 25.9113 4.95009 25.9236 4.95364C25.9644 4.96426 26.0051 4.97489 26.0458 4.98551C26.067 4.99083 26.09 4.99614 26.1113 5.00322C26.1538 5.01562 26.198 5.02625 26.2387 5.03864C26.2493 5.04041 26.2582 5.04396 26.267 5.0475C26.3078 5.05989 26.3485 5.07229 26.3874 5.08469C26.4193 5.09354 26.4511 5.10417 26.483 5.1148C26.4989 5.12011 26.5166 5.12542 26.5326 5.13073C26.5715 5.14313 26.6087 5.15553 26.6476 5.1697C26.6689 5.17678 26.6883 5.18386 26.7096 5.19095C26.7397 5.20157 26.768 5.2122 26.7981 5.2246C26.8264 5.23345 26.853 5.24408 26.8813 5.2547C26.9025 5.26356 26.922 5.27064 26.9432 5.2795C26.9733 5.29189 27.0017 5.30252 27.03 5.31492C27.0636 5.32731 27.0955 5.34148 27.1291 5.35565C27.145 5.36273 27.161 5.36805 27.1751 5.37513C27.2052 5.38753 27.2335 5.4017 27.2619 5.41409C27.2902 5.42649 27.3185 5.43889 27.3468 5.45305C27.3628 5.46014 27.3787 5.46722 27.3929 5.47608C27.4229 5.49025 27.453 5.50441 27.4814 5.51858C27.5079 5.53098 27.5327 5.54338 27.5575 5.55754C27.5823 5.56994 27.6053 5.58234 27.63 5.59473C27.6708 5.61599 27.7097 5.63724 27.7504 5.66026C27.784 5.67974 27.8195 5.69922 27.8549 5.72047C27.869 5.72756 27.8814 5.73641 27.8938 5.7435C27.9168 5.75589 27.9381 5.76829 27.9593 5.78246C27.9929 5.80194 28.0248 5.82319 28.0567 5.84444C28.0567 5.84444 28.0584 5.84444 28.0602 5.84622C28.1027 5.87278 28.1452 5.90112 28.1859 5.92945C28.1876 5.93122 28.1912 5.93299 28.1947 5.93477C28.2301 5.95779 28.2638 5.98081 28.2974 6.0056C28.3116 6.01446 28.3257 6.02509 28.3381 6.03394C28.37 6.05873 28.4018 6.08176 28.4337 6.10478C28.4355 6.10478 28.4372 6.10655 28.439 6.10832C28.5151 6.16499 28.5877 6.22344 28.6603 6.28365C28.6744 6.29605 28.6904 6.30844 28.7063 6.32084C28.7293 6.34032 28.7523 6.3598 28.7736 6.37928C28.7859 6.38991 28.7983 6.40054 28.8107 6.41116C28.839 6.43596 28.8656 6.46075 28.8939 6.48554C28.8975 6.48909 28.9028 6.4944 28.9081 6.49794C28.9399 6.52628 28.97 6.55638 29.0001 6.58472C29.009 6.59357 29.0178 6.60243 29.0267 6.61128C29.0515 6.63608 29.0762 6.6591 29.101 6.68567C29.1453 6.72994 29.1878 6.77599 29.2302 6.82203C29.2904 6.88756 29.3488 6.95309 29.4037 7.02038C29.4073 7.02393 29.4126 7.02924 29.4143 7.03278C29.4427 7.06643 29.471 7.10185 29.4993 7.1355C29.5294 7.17269 29.5613 7.21165 29.5896 7.25061C29.6197 7.2878 29.648 7.32854 29.6763 7.36573C29.6781 7.36927 29.6816 7.37281 29.6852 7.37812C29.71 7.41177 29.7347 7.44719 29.7577 7.48084C29.8109 7.55699 29.8622 7.63492 29.9118 7.71461C29.933 7.74649 29.9525 7.77837 29.9719 7.81025C30.0374 7.91651 30.0994 8.02454 30.1578 8.13611C30.179 8.1733 30.1985 8.21226 30.218 8.25122C30.3384 8.48499 30.4463 8.72939 30.5437 8.98087C30.5578 9.01452 30.5702 9.04817 30.5844 9.08359C30.6375 9.22881 30.6888 9.37403 30.7349 9.5228C30.7508 9.57238 30.7667 9.62197 30.7809 9.67333C30.7933 9.71938 30.8074 9.76365 30.8198 9.80793C30.8287 9.83626 30.8358 9.86637 30.8428 9.8947C30.8517 9.92127 30.8588 9.94961 30.8658 9.97794C30.8836 10.0452 30.9013 10.1143 30.919 10.1834C30.9402 10.2666 30.9597 10.3498 30.9774 10.4349C30.9791 10.4473 30.9827 10.4579 30.9844 10.4703C30.9933 10.5128 31.0022 10.5535 31.011 10.596C31.0216 10.6491 31.034 10.704 31.0446 10.7572C31.0853 10.975 31.1225 11.1964 31.1562 11.4231C31.1685 11.5116 31.1792 11.6002 31.1898 11.6905C31.2057 11.8269 31.2216 11.9632 31.2358 12.0996C31.2978 12.7442 31.3261 13.4137 31.3261 14.099C31.3261 14.4072 31.3208 14.7136 31.3084 15.0164C31.2517 16.4704 31.1048 18.1263 31.5473 19.5201C31.9863 20.9032 32.6342 22.7008 32.7971 24.4558C32.7971 24.4593 32.7988 24.4647 32.7988 24.4682C32.8661 25.1979 32.9068 25.885 32.9174 26.4677C32.9174 26.4801 32.9174 26.4924 32.9174 26.5048C32.9157 26.5899 32.9157 26.6731 32.9157 26.7546Z" fill="#575B5A"/>
</g>
</g>
</g>
<g id="Group_229">
<g id="Group_230">
<g id="Group_231">
<path id="Vector_76" d="M31.8022 28.4511C31.303 30.6754 29.2939 34.9347 23.3144 34.9347C15.9099 34.9347 13.5822 31.3059 13.4123 27.9782C13.2795 25.3713 15.494 23.3754 15.7683 21.422C16.0427 19.4686 16.2056 19.6315 15.5913 15.4555C15.055 11.8002 16.3171 7.23989 20.684 7.85796C23.5286 8.25998 23.0082 14.6692 23.0082 14.6692C23.2259 14.5328 23.8631 14.1237 24.1269 14.1237C24.3623 14.1237 25.0456 14.5559 25.2456 14.6692C25.2456 14.6692 23.8578 8.34853 27.0742 8.34853C29.9418 8.34853 30.1772 11.7772 29.8232 15.4555C29.4993 18.8186 30.5454 21.0696 30.8463 21.9108C31.9119 24.8949 32.1049 27.098 31.8022 28.4511Z" fill="white"/>
</g>
</g>
</g>
<g id="Group_232" opacity="0.3">
<g id="Group_233" opacity="0.3">
<g id="Group_234" opacity="0.3">
<path id="Vector_77" opacity="0.3" d="M32.9156 26.7544V26.8022C32.9103 27.9711 32.7421 29.0868 32.3668 30.1016C31.6411 31.8301 29.1523 34.8904 26.3289 35.4819C24.9925 35.7617 23.3657 35.9051 21.3973 35.9051C16.5029 35.9051 14.2336 34.0261 12.4387 32.5119C12.4104 32.4889 12.3838 32.4659 12.3555 32.4428C12.336 32.4269 12.3183 32.411 12.3006 32.3933C11.2917 31.4617 10.8244 29.7509 10.6668 27.9003C10.6527 27.732 10.6403 27.562 10.6314 27.392C10.6243 27.2521 10.619 26.9847 10.6172 26.8447C10.6172 26.8377 10.6172 26.8306 10.6172 26.8253V26.7969C10.6757 25.8707 10.7766 24.9852 10.95 24.0731C11.0633 23.912 11.1306 23.8181 11.1306 23.8181C11.1306 23.8181 10.8261 32.1046 17.8907 33.532C27.7734 35.5279 32.2482 30.9446 32.9174 26.5083C32.9156 26.5915 32.9156 26.673 32.9156 26.7544Z" fill="#1A1A5A"/>
</g>
</g>
</g>
<g id="Group_235" opacity="0.3">
<g id="Group_236" opacity="0.3">
<g id="Group_237" opacity="0.3">
<path id="Vector_78" opacity="0.3" d="M30.9843 10.4721C27.7308 10.6386 17.2109 11.0282 13.2954 10.7395C13.4175 10.171 13.5804 9.62912 13.7893 9.11907V9.1173C13.8087 9.08011 13.8282 9.04115 13.8477 9.00396C14.7558 7.29318 16.2799 5.95785 18.6306 5.23706C18.6306 5.23706 18.6324 5.23706 18.6341 5.23706C19.5263 4.96432 20.5388 4.77837 21.6823 4.69336L21.415 4.67034C21.2256 4.15675 20.314 3.26063 21.1229 2.50973C21.7797 1.89873 22.6205 2.74704 22.8223 3.41648C22.8453 3.49086 22.9426 3.50857 22.9904 3.44658C23.0117 3.41825 23.0364 3.38814 23.063 3.35449C23.3993 2.94362 24.1003 2.21397 24.6827 2.44951C25.4969 2.78069 25.0721 4.02393 24.6543 4.72347C24.8438 4.74472 25.0296 4.77129 25.2119 4.80139C25.2261 4.80316 25.2403 4.80493 25.2562 4.80848C25.2898 4.81379 25.3217 4.82087 25.3535 4.82619C25.3589 4.82796 25.3642 4.82796 25.3695 4.82973C25.4208 4.84035 25.4721 4.84921 25.5217 4.85806C25.5341 4.86161 25.5465 4.86338 25.5589 4.86692C25.6084 4.87754 25.658 4.88817 25.7058 4.8988C25.7182 4.90234 25.7306 4.90411 25.743 4.90765C25.7925 4.91828 25.8421 4.93067 25.8899 4.94307C25.9023 4.94484 25.9129 4.94838 25.9253 4.95193C25.966 4.96255 26.0067 4.97318 26.0474 4.9838C26.0687 4.98912 26.0917 4.99443 26.1129 5.00151C26.1554 5.01391 26.1997 5.02454 26.2404 5.03693C26.251 5.0387 26.2599 5.04225 26.2687 5.04579C26.3094 5.05819 26.3501 5.07058 26.3891 5.08298C26.4209 5.09183 26.4528 5.10246 26.4847 5.11309C26.5006 5.1184 26.5183 5.12371 26.5342 5.12903C26.5732 5.14142 26.6103 5.15382 26.6493 5.16799C26.6705 5.17507 26.69 5.18216 26.7112 5.18924C26.7413 5.19987 26.7697 5.21049 26.7997 5.22289C26.8281 5.23174 26.8546 5.24237 26.8829 5.253C26.9042 5.26185 26.9237 5.26893 26.9449 5.27779C26.975 5.29019 27.0033 5.30081 27.0316 5.31321C27.0653 5.32561 27.0971 5.33977 27.1308 5.35394C27.1467 5.36103 27.1626 5.36634 27.1768 5.37342C27.2069 5.38582 27.2352 5.39999 27.2635 5.41238C27.2918 5.42478 27.3202 5.43718 27.3485 5.45135C27.3644 5.45843 27.3803 5.46551 27.3945 5.47437C27.4246 5.48854 27.4547 5.50271 27.483 5.51687C27.5096 5.52927 27.5344 5.54167 27.5591 5.55584C27.5839 5.56823 27.6069 5.58063 27.6317 5.59303C27.6724 5.61428 27.7114 5.63553 27.7521 5.65855C27.7857 5.67803 27.8211 5.69751 27.8565 5.71877C27.8707 5.72585 27.8831 5.73471 27.8955 5.74179C27.9185 5.75419 27.9397 5.76658 27.961 5.78075C27.9946 5.80023 28.0264 5.82148 28.0583 5.84274C28.0583 5.84274 28.0601 5.84274 28.0619 5.84451C28.1043 5.87107 28.1468 5.89941 28.1875 5.92774C28.1893 5.92951 28.1928 5.93129 28.1964 5.93306C28.2318 5.95608 28.2654 5.9791 28.299 6.0039C28.3132 6.01275 28.3274 6.02338 28.3398 6.03223C28.3716 6.05703 28.4035 6.08005 28.4353 6.10307C28.4371 6.10307 28.4389 6.10484 28.4407 6.10661C28.5168 6.16329 28.5893 6.22173 28.6619 6.28194C28.6761 6.29434 28.692 6.30674 28.7079 6.31913C28.731 6.33861 28.754 6.35809 28.7752 6.37758C28.7876 6.3882 28.8 6.39883 28.8124 6.40945C28.8407 6.43425 28.8673 6.45904 28.8956 6.48384C28.8991 6.48738 28.9044 6.49269 28.9097 6.49623C28.9416 6.52457 28.9717 6.55468 29.0018 6.58301C29.0106 6.59187 29.0195 6.60072 29.0283 6.60958C29.0531 6.63437 29.0779 6.65739 29.1027 6.68396C29.1469 6.72823 29.1894 6.77428 29.2319 6.82032C29.2921 6.88585 29.3505 6.95138 29.4054 7.01867C29.4089 7.02222 29.4142 7.02753 29.416 7.03107C29.4443 7.06472 29.4726 7.10014 29.501 7.13379C29.5311 7.17098 29.5629 7.20994 29.5912 7.2489C29.6213 7.28609 29.6497 7.32683 29.678 7.36402C29.6798 7.36756 29.6833 7.3711 29.6868 7.37642C29.7116 7.41006 29.7364 7.44548 29.7594 7.47913C29.8125 7.55528 29.8638 7.63321 29.9134 7.7129C29.9347 7.74478 29.9541 7.77666 29.9736 7.80854C30.0391 7.9148 30.101 8.02283 30.1595 8.1344C30.1807 8.17159 30.2002 8.21055 30.2196 8.24951C30.34 8.48329 30.448 8.72768 30.5453 8.97916C30.5595 9.01281 30.5719 9.04646 30.5861 9.08188C30.6392 9.2271 30.6905 9.37232 30.7365 9.52109C30.7525 9.57067 30.7684 9.62026 30.7825 9.67162C30.7949 9.71767 30.8091 9.76194 30.8215 9.80622C30.8303 9.83455 30.8374 9.86466 30.8445 9.893C30.8533 9.91956 30.8604 9.9479 30.8675 9.97623C30.8852 10.0435 30.9029 10.1126 30.9206 10.1817C30.9419 10.2649 30.9613 10.3481 30.979 10.4331C30.979 10.4491 30.9826 10.4597 30.9843 10.4721Z" fill="#1A1A5A"/>
</g>
</g>
</g>
<g id="Group_238" opacity="0.35">
<g id="Group_239" opacity="0.35">
<g id="Group_240" opacity="0.35">
<path id="Vector_79" opacity="0.35" d="M31.234 12.1013L30.9809 14.1344C30.9809 14.1344 30.7048 8.92943 27.9787 6.91936C27.4212 6.50671 26.7857 6.18616 26.1006 5.94708C26.1555 6.01615 26.1803 6.08522 26.1714 6.15429C26.1343 6.4589 25.4598 6.62714 24.6651 6.53151C23.8685 6.43587 23.2543 6.11178 23.2914 5.80717C23.3109 5.64247 23.518 5.5185 23.8313 5.45297C21.2044 5.17847 18.3563 5.78061 16.5101 6.87154C14.7275 7.92705 13.7186 10.6792 13.0264 12.6645C13.1202 11.3787 13.3539 10.178 13.7894 9.11893V9.11716C13.8088 9.0782 13.8283 9.041 13.8478 9.00381C14.8284 7.12302 16.0958 5.82665 18.6307 5.23691H18.6324C19.4927 5.03679 20.4999 4.9199 21.6912 4.88803C21.6912 4.88803 22.8825 4.9323 23.0666 4.9323H23.0684C23.472 4.93584 23.8543 4.73749 24.065 4.39215C24.3907 3.85731 24.7164 3.19142 24.4332 3.04088C23.9287 2.77346 23.0808 3.71032 23.0808 3.71032L23.0613 3.35612C23.3976 2.94348 24.0986 2.2156 24.681 2.45114C25.4953 2.78055 25.0704 4.02555 24.6509 4.7251C24.8421 4.74635 25.0279 4.77291 25.2085 4.80479C24.789 4.74812 24.9146 4.99783 24.55 5.0545L25.3129 5.01554C25.3129 5.01554 25.3271 4.94293 25.3501 4.82781C25.3554 4.82958 25.3625 4.82958 25.3678 4.83135C25.4191 4.84021 25.4687 4.85084 25.52 4.85969C25.5324 4.86146 25.5448 4.865 25.5572 4.86677C25.6068 4.8774 25.6563 4.88803 25.7041 4.89865C25.7165 4.90042 25.7289 4.90397 25.7413 4.90751C25.7909 4.91813 25.8404 4.93053 25.8882 4.94293C25.9006 4.9447 25.9112 4.94824 25.9236 4.95178C25.9643 4.96064 26.005 4.97303 26.0458 4.98366C26.067 4.98897 26.09 4.99429 26.1113 5.00137C26.1537 5.01377 26.1962 5.02439 26.2387 5.03679C26.2476 5.03856 26.2582 5.0421 26.267 5.04564C26.3077 5.05804 26.3485 5.07044 26.3874 5.08284C26.4193 5.09169 26.4511 5.10232 26.4812 5.11294C26.4971 5.11826 26.5148 5.12357 26.5308 5.12888C26.5697 5.14128 26.6087 5.15368 26.6458 5.16784C26.6671 5.17493 26.6866 5.18201 26.7078 5.1891C26.7379 5.19795 26.7662 5.21035 26.7963 5.22097C26.8246 5.22983 26.8512 5.24045 26.8795 5.25285C26.899 5.25994 26.9202 5.26879 26.9397 5.27765C26.9698 5.29004 26.9981 5.30067 27.0282 5.31306C27.0618 5.32546 27.0937 5.33963 27.1255 5.3538C27.1415 5.36088 27.1574 5.36619 27.1733 5.37328C27.2034 5.38568 27.2318 5.39984 27.2601 5.41224C27.2884 5.42464 27.3167 5.43703 27.345 5.4512C27.361 5.45829 27.3769 5.46537 27.3928 5.47423C27.4229 5.48839 27.453 5.50256 27.4813 5.51673C27.5079 5.52913 27.5327 5.54152 27.5575 5.55569C27.5822 5.56809 27.6052 5.58048 27.63 5.59465C27.6707 5.6159 27.7097 5.63716 27.7504 5.66018C27.7858 5.67966 27.8194 5.69914 27.8548 5.72039C27.869 5.72748 27.8814 5.73456 27.8938 5.74342C27.915 5.75581 27.938 5.76821 27.9593 5.78238C27.9929 5.80186 28.0248 5.82311 28.0566 5.84259C28.0566 5.84259 28.0584 5.84259 28.0584 5.84436C28.1009 5.87093 28.1434 5.89926 28.1841 5.9276C28.1859 5.92937 28.1894 5.93114 28.1929 5.93291C28.2266 5.95594 28.262 5.97896 28.2956 6.00375C28.3098 6.01261 28.3239 6.02323 28.3363 6.03209C28.3682 6.05688 28.4 6.0799 28.4319 6.10293C28.4337 6.1047 28.4354 6.1047 28.4372 6.10647C28.5116 6.16314 28.5859 6.22158 28.6585 6.2818C28.6726 6.2942 28.6886 6.30659 28.7045 6.32076C28.7275 6.34024 28.7505 6.35972 28.7718 6.3792C28.7842 6.38983 28.7965 6.40045 28.8072 6.41108C28.8355 6.43587 28.862 6.4589 28.8886 6.48369C28.8939 6.489 28.8974 6.49255 28.9028 6.49786C28.9346 6.5262 28.9647 6.5563 28.9948 6.58464C29.0037 6.59349 29.0125 6.60235 29.0214 6.6112C29.0461 6.636 29.0709 6.65902 29.0957 6.68558C29.14 6.72986 29.1824 6.77591 29.2249 6.82195C29.2851 6.88748 29.3435 6.953 29.3984 7.01853C29.4019 7.02384 29.4055 7.02739 29.409 7.03093C29.4373 7.06458 29.4657 7.1 29.494 7.13365C29.5241 7.17084 29.5542 7.2098 29.5843 7.24876C29.6144 7.28772 29.6427 7.32668 29.671 7.36387C29.6728 7.36742 29.6763 7.37096 29.6798 7.37627C29.7046 7.40992 29.7294 7.44534 29.7524 7.47899C29.8055 7.55514 29.8569 7.63307 29.9064 7.71276C29.9277 7.74464 29.9471 7.77652 29.9666 7.80839C30.0321 7.91465 30.0941 8.02445 30.1525 8.13426C30.1719 8.17145 30.1932 8.21041 30.2127 8.2476C30.333 8.48137 30.441 8.72577 30.5401 8.97725C30.5543 9.0109 30.5667 9.04455 30.5791 9.07997C30.6322 9.22519 30.6835 9.37041 30.7313 9.51917C30.7472 9.56876 30.7632 9.61835 30.7773 9.66971C30.7897 9.71398 30.8039 9.75826 30.8163 9.8043C30.8251 9.83264 30.834 9.86275 30.8411 9.89108C30.8499 9.91765 30.857 9.94598 30.8641 9.97432C30.8818 10.0416 30.8995 10.1107 30.9172 10.1798C30.9384 10.263 30.9579 10.3462 30.9756 10.4312C30.988 10.4844 30.9986 10.5375 31.0092 10.5924C31.0198 10.6455 31.0305 10.7004 31.0411 10.7536C31.0836 10.9714 31.1207 11.1945 31.1526 11.4194C31.165 11.508 31.1774 11.5965 31.1862 11.6869C31.2057 11.8268 31.2199 11.9649 31.234 12.1013Z" fill="white"/>
</g>
</g>
<g id="Group_241" opacity="0.35">
<g id="Group_242" opacity="0.35">
<path id="Vector_80" opacity="0.35" d="M31.0252 14.1414L30.9402 14.1379C30.9402 14.1255 30.8659 12.822 30.4623 11.2919C30.0906 9.88217 29.3524 7.98721 27.9558 6.95472C27.4478 6.57927 26.8565 6.26935 26.1998 6.0285C26.2175 6.07277 26.2228 6.11704 26.2175 6.16132C26.1768 6.49427 25.4953 6.67668 24.6633 6.57573C23.8314 6.47479 23.2118 6.13653 23.2508 5.80358C23.2667 5.66721 23.3889 5.55387 23.5977 5.47595C21.1231 5.26697 18.3741 5.82129 16.5331 6.91045C14.8391 7.91106 13.8567 10.4135 13.0672 12.6786L12.9592 12.9867L12.9822 12.6609C13.0831 11.2777 13.3327 10.1142 13.7452 9.10825V9.10648L13.7505 9.09763L13.7522 9.09408C13.7735 9.05158 13.7912 9.01793 13.8107 8.98428C14.3523 7.94648 14.9312 7.19027 15.6304 6.60407C16.4216 5.94172 17.397 5.48303 18.6113 5.1979L18.6237 5.19436C19.5052 4.99069 20.5088 4.87558 21.6913 4.84547H21.6931H21.6948C21.7072 4.84547 22.8861 4.88975 23.0685 4.88975H23.0702C23.465 4.89329 23.8332 4.69494 24.0314 4.37085C24.3854 3.78819 24.5447 3.37555 24.4916 3.17897C24.4793 3.13292 24.4545 3.10104 24.4155 3.07979C23.9464 2.83185 23.1233 3.72975 23.1163 3.7386L23.0472 3.81475L23.0207 3.34013L23.0313 3.32773C23.3959 2.88144 24.0987 2.16773 24.7005 2.41036C24.9165 2.49891 25.0634 2.65298 25.136 2.87082C25.3094 3.38795 25.0298 4.1601 24.7253 4.68962C24.9005 4.71088 25.0634 4.7339 25.2192 4.76046L25.2068 4.84547C24.9944 4.81714 24.9395 4.87027 24.8705 4.93756C24.851 4.95704 24.8297 4.97653 24.8032 4.99778L25.2811 4.97298C25.2882 4.94111 25.2971 4.88798 25.3112 4.81891L25.3201 4.7764L25.3625 4.78526C25.3643 4.78526 25.3661 4.78526 25.3696 4.78703C25.3732 4.78703 25.3767 4.7888 25.3803 4.7888C25.4298 4.79766 25.4811 4.80828 25.5307 4.81714L25.5679 4.82422C25.6157 4.83485 25.667 4.84547 25.7166 4.8561L25.7219 4.85787C25.7325 4.85964 25.7449 4.86318 25.7555 4.86495C25.7998 4.87381 25.8476 4.88621 25.9024 4.90037C25.9148 4.90214 25.9255 4.90569 25.9378 4.90923C25.9768 4.91808 26.0193 4.93048 26.06 4.94111C26.0812 4.94642 26.1042 4.95173 26.1272 4.95882C26.168 4.96944 26.2122 4.98184 26.2547 4.99424C26.26 4.99601 26.2653 4.99778 26.2724 4.99955C26.2759 5.00132 26.2795 5.00132 26.283 5.00309C26.322 5.01372 26.3627 5.02611 26.4052 5.04028C26.437 5.04914 26.4689 5.05976 26.5007 5.07039L26.5096 5.07393C26.5238 5.07747 26.5379 5.08279 26.5503 5.0881C26.591 5.1005 26.63 5.11466 26.6654 5.12706C26.6848 5.13414 26.7061 5.14123 26.7273 5.14831C26.7539 5.15717 26.7822 5.16779 26.8158 5.18019C26.8459 5.19082 26.8742 5.20144 26.899 5.21207L26.9114 5.21738C26.9273 5.22446 26.945 5.22978 26.961 5.23686C26.9946 5.24926 27.0229 5.26166 27.0495 5.27228C27.0831 5.28468 27.115 5.30062 27.1486 5.31479C27.1663 5.32187 27.1822 5.32895 27.1964 5.33427C27.2212 5.34489 27.2531 5.35906 27.2849 5.37323C27.3115 5.38385 27.3398 5.39802 27.3699 5.41219C27.384 5.41927 27.4017 5.42636 27.4177 5.43521C27.446 5.44938 27.4779 5.46355 27.5062 5.47949C27.5292 5.49011 27.5557 5.50428 27.5841 5.51845C27.6088 5.53085 27.6336 5.54324 27.6566 5.55741C27.6956 5.57689 27.7363 5.59992 27.777 5.62294C27.8106 5.64242 27.846 5.6619 27.8814 5.68315C27.8938 5.69024 27.908 5.69732 27.9222 5.70617C27.9487 5.72034 27.97 5.73274 27.9877 5.74691C28.0195 5.76639 28.0514 5.78587 28.0815 5.80535C28.085 5.80712 28.0868 5.80889 28.0903 5.81066C28.1275 5.83369 28.1664 5.86025 28.2142 5.89213C28.2195 5.8939 28.2231 5.89744 28.2266 5.90098C28.2603 5.92401 28.2957 5.94703 28.3275 5.97182C28.3417 5.98068 28.3558 5.9913 28.3682 6.00016C28.4019 6.02495 28.4337 6.04798 28.4656 6.071L28.4709 6.07454C28.5488 6.13298 28.6231 6.1932 28.6922 6.24987C28.7081 6.26227 28.7223 6.27466 28.7382 6.28883C28.7594 6.30654 28.7842 6.32779 28.8072 6.34727C28.8196 6.3579 28.832 6.36853 28.8444 6.38092C28.8727 6.40572 28.8993 6.42874 28.9258 6.45353L28.9276 6.4553C28.9294 6.45708 28.9311 6.45885 28.9329 6.46062C28.9364 6.46239 28.9382 6.46593 28.9418 6.4677C28.9718 6.49604 29.0037 6.52437 29.0338 6.55448L29.0427 6.56334C29.0497 6.57042 29.055 6.57573 29.0621 6.58282L29.0851 6.60584C29.1011 6.62178 29.1188 6.63949 29.1347 6.65543C29.1825 6.70324 29.225 6.74929 29.2657 6.79356C29.3259 6.85909 29.3843 6.92639 29.4409 6.99192L29.4445 6.99546C29.448 6.999 29.4516 7.00254 29.4533 7.00608C29.4816 7.03973 29.51 7.07338 29.5383 7.1088C29.5702 7.14776 29.6002 7.18672 29.6286 7.22569C29.6587 7.26288 29.687 7.30361 29.7153 7.34257L29.7171 7.34434C29.7171 7.34611 29.7188 7.34611 29.7206 7.34789C29.7224 7.34966 29.7242 7.3532 29.7259 7.35497C29.7489 7.38685 29.7737 7.42227 29.7985 7.45769C29.8481 7.52853 29.8994 7.60645 29.9543 7.69146C29.9755 7.72334 29.995 7.75698 30.0145 7.78886C30.0746 7.88804 30.1366 7.99607 30.2021 8.1165C30.2251 8.159 30.2446 8.19619 30.2623 8.23161C30.3809 8.46361 30.4924 8.70978 30.5915 8.9648C30.6057 8.99845 30.6181 9.03387 30.6305 9.06752C30.6853 9.21451 30.7367 9.3615 30.7827 9.51027C30.7951 9.54746 30.8057 9.58465 30.8181 9.62184L30.8429 9.70153C30.8517 9.73341 30.8606 9.76529 30.8694 9.79717C30.8783 9.8255 30.8854 9.85561 30.8942 9.88395C30.9031 9.91228 30.9101 9.94062 30.9172 9.96718C30.9349 10.0309 30.9509 10.0982 30.9703 10.1726C30.988 10.2452 31.0075 10.3267 31.0287 10.4241C31.0411 10.479 31.0518 10.5321 31.0624 10.5853C31.073 10.6402 31.0836 10.6933 31.0942 10.7482C31.1367 10.966 31.1739 11.1892 31.2058 11.4159C31.2199 11.5186 31.2305 11.6036 31.2394 11.6833C31.2553 11.8108 31.2695 11.9454 31.2854 12.0941V12.0995L31.0252 14.1414ZM25.975 5.85848L26.1149 5.90807C26.8247 6.15601 27.4602 6.48541 28.0036 6.88566C28.6302 7.34788 29.179 8.01732 29.6356 8.87625C29.9985 9.56163 30.3048 10.3674 30.5437 11.2724C30.8146 12.2943 30.9367 13.217 30.9898 13.7235L31.1916 12.103C31.1774 11.9578 31.1633 11.825 31.1473 11.6992C31.1385 11.6195 31.1279 11.5345 31.1137 11.4336C31.0818 11.2086 31.0447 10.9855 31.004 10.7694C30.9933 10.7145 30.9827 10.6614 30.9721 10.6083C30.9615 10.5552 30.9509 10.502 30.9385 10.4489C30.9172 10.3515 30.8978 10.2718 30.8801 10.1992C30.8624 10.1248 30.8447 10.0593 30.827 9.99552C30.8199 9.96718 30.8128 9.94062 30.8039 9.91405V9.91228C30.7969 9.88395 30.788 9.85561 30.7809 9.82728C30.7721 9.7954 30.7632 9.76352 30.7544 9.73341L30.7314 9.65372C30.7207 9.61653 30.7083 9.57934 30.6977 9.54392C30.6517 9.39692 30.6004 9.24993 30.5473 9.10648C30.5349 9.07283 30.5207 9.03918 30.5083 9.00553C30.411 8.75228 30.3012 8.50966 30.1826 8.27943C30.1649 8.24401 30.1454 8.20859 30.1242 8.16608C30.0605 8.04566 29.9985 7.9394 29.9383 7.84199C29.9189 7.81011 29.8994 7.77824 29.8799 7.74636C29.8251 7.66135 29.7755 7.5852 29.7259 7.51436C29.7029 7.48071 29.6781 7.44529 29.6534 7.41164C29.6516 7.40987 29.6498 7.4081 29.6498 7.40633C29.648 7.40456 29.6463 7.40101 29.6445 7.39924C29.6162 7.36205 29.5879 7.32309 29.5595 7.2859C29.5312 7.24871 29.5011 7.20975 29.4693 7.17079C29.4409 7.13537 29.4126 7.10172 29.3843 7.06807L29.3825 7.0663C29.3808 7.06453 29.379 7.06276 29.379 7.06098L29.3754 7.05567C29.3206 6.99014 29.2622 6.92462 29.202 6.85909C29.1613 6.81482 29.1205 6.77054 29.0727 6.72272C29.0568 6.70679 29.0409 6.68908 29.0232 6.67314L28.9984 6.64834C28.9913 6.64126 28.986 6.63595 28.9807 6.63063L28.9718 6.62178C28.9418 6.59344 28.9117 6.56511 28.8798 6.535C28.8763 6.53146 28.8745 6.52969 28.8727 6.52792C28.871 6.52614 28.8674 6.5226 28.8656 6.52083C28.8391 6.49604 28.8125 6.47301 28.7842 6.44822L28.7824 6.44645C28.7718 6.43582 28.7612 6.42697 28.7488 6.41634C28.7258 6.39509 28.7028 6.37738 28.6815 6.3579C28.6656 6.34373 28.6515 6.33133 28.6355 6.31894C28.5665 6.26227 28.4939 6.20382 28.4178 6.14538C28.416 6.14361 28.4125 6.14184 28.4107 6.14007C28.3789 6.11705 28.3488 6.09402 28.3169 6.071C28.3045 6.06214 28.2903 6.05152 28.2762 6.04266C28.2426 6.01787 28.2089 5.99485 28.1753 5.97359L28.1718 5.97182L28.17 5.97005L28.1664 5.96828C28.1222 5.93817 28.085 5.91338 28.0496 5.89213L28.039 5.88504C28.0071 5.86556 27.9753 5.84431 27.9434 5.82483L27.9416 5.82306C27.9239 5.81066 27.9045 5.80004 27.8797 5.78587L27.8779 5.7841C27.8655 5.77524 27.8531 5.76816 27.8425 5.76285L27.8407 5.76108C27.8071 5.73982 27.7717 5.72034 27.7381 5.70263C27.6974 5.67961 27.6566 5.65659 27.6195 5.63711C27.5947 5.62471 27.5717 5.61054 27.5469 5.59992C27.5186 5.58575 27.4956 5.57335 27.4708 5.56095C27.4407 5.54501 27.4106 5.53085 27.3823 5.51668C27.3663 5.50959 27.3504 5.50074 27.3362 5.49366C27.3062 5.47949 27.2796 5.46709 27.2531 5.45469C27.2212 5.43875 27.1893 5.42636 27.1663 5.41573C27.1522 5.40865 27.138 5.40334 27.1203 5.39625C27.0884 5.38208 27.0548 5.36792 27.0229 5.35552C26.9964 5.34489 26.9698 5.33427 26.9344 5.3201C26.9185 5.31301 26.9026 5.3077 26.8866 5.30062L26.8742 5.2953C26.8477 5.28468 26.8211 5.27405 26.7928 5.2652H26.791C26.7574 5.2528 26.7309 5.24217 26.7061 5.23332H26.7043C26.6848 5.22624 26.6636 5.21915 26.6441 5.21207C26.607 5.1979 26.5715 5.1855 26.5291 5.17311C26.5149 5.16779 26.5025 5.16425 26.4884 5.16071L26.4795 5.15717C26.4494 5.14654 26.4175 5.13592 26.3857 5.12706C26.3432 5.11289 26.3043 5.1005 26.2653 5.08987C26.2618 5.0881 26.2565 5.0881 26.2529 5.08633C26.2476 5.08456 26.2423 5.08279 26.237 5.08101C26.1945 5.06862 26.1503 5.05622 26.1095 5.04559C26.0883 5.03851 26.0653 5.0332 26.0458 5.02788H26.0441C26.0051 5.01726 25.9626 5.00663 25.9237 4.99601C25.9113 4.99246 25.9007 4.99069 25.89 4.98715C25.8334 4.97298 25.7874 4.96236 25.7414 4.95173C25.7307 4.94819 25.7201 4.94642 25.7095 4.94465L25.7042 4.94288C25.6546 4.93225 25.6033 4.92162 25.5573 4.911L25.5201 4.90391C25.4794 4.89506 25.4369 4.88798 25.3944 4.87912C25.3767 4.96944 25.3661 5.02434 25.3661 5.02434L25.359 5.05799L24.5624 5.09872L24.5536 5.01372C24.7023 4.99069 24.7589 4.93402 24.8156 4.87912C24.8439 4.85079 24.8722 4.82422 24.9076 4.80297C24.8262 4.79234 24.743 4.78172 24.6563 4.77109L24.5908 4.76401L24.6244 4.70733C24.9324 4.19198 25.2316 3.41097 25.0616 2.90269C24.9979 2.70966 24.8669 2.57329 24.6757 2.49537C24.1323 2.27399 23.4703 2.9452 23.1163 3.37378L23.1304 3.61286C23.3481 3.39326 24.0172 2.77164 24.4651 3.00718C24.5253 3.03906 24.5642 3.09042 24.5837 3.15949C24.6456 3.38263 24.4863 3.8059 24.1146 4.41866C23.9004 4.76932 23.5057 4.98361 23.0808 4.98007H23.0791C22.8968 4.98007 21.7692 4.93934 21.7037 4.93579C20.5301 4.9659 19.5335 5.07924 18.6591 5.28291C18.6555 5.28468 18.6537 5.28468 18.6502 5.28468C16.388 5.81066 15.0126 6.89451 13.8992 9.02856C13.8815 9.06221 13.8638 9.09586 13.8425 9.13659C13.8425 9.13836 13.8408 9.14013 13.8408 9.1419C13.4637 10.0593 13.2247 11.1059 13.1097 12.3368C13.4407 11.3964 13.8354 10.3515 14.3329 9.40401C14.9913 8.15192 15.6994 7.31424 16.4995 6.84138C18.413 5.70972 21.2966 5.15008 23.8473 5.4175L24.1235 5.44584L23.8526 5.50251C23.5517 5.5645 23.3623 5.68315 23.3464 5.81952C23.3127 6.09402 23.9252 6.40395 24.6828 6.49604C25.4404 6.58636 26.1078 6.43051 26.1414 6.15601C26.1485 6.10111 26.1272 6.04089 26.0795 5.98068L25.975 5.85848ZM28.1682 5.96828C28.1682 5.96828 28.1682 5.97005 28.1682 5.96828V5.96828Z" fill="#1A1A5A"/>
</g>
</g>
</g>
<g id="Group_243" opacity="0.35">
<g id="Group_244" opacity="0.35">
<g id="Group_245" opacity="0.35">
<path id="Vector_81" opacity="0.35" d="M24.3463 5.06702H24.341L24.5481 5.0564C24.4932 5.06525 24.4277 5.06879 24.3463 5.06702Z" fill="white"/>
</g>
</g>
<g id="Group_246" opacity="0.35">
<g id="Group_247" opacity="0.35">
<path id="Vector_82" opacity="0.35" d="M24.3871 5.10937C24.3748 5.10937 24.3606 5.10937 24.3464 5.10937H24.3411L24.3394 5.02259L24.5465 5.01196L24.5553 5.09697C24.5057 5.10583 24.4509 5.10937 24.3871 5.10937Z" fill="#1A1A5A"/>
</g>
</g>
</g>
<g id="Group_248" opacity="0.35">
<g id="Group_249" opacity="0.35">
<g id="Group_250" opacity="0.35">
<path id="Vector_83" opacity="0.35" d="M25.3501 4.82975C25.3271 4.94487 25.3129 5.01748 25.3129 5.01748L24.55 5.05644C24.9253 4.99622 24.7783 4.73235 25.2527 4.81381C25.2864 4.81912 25.3182 4.82444 25.3501 4.82975Z" fill="white"/>
</g>
</g>
<g id="Group_251" opacity="0.35">
<g id="Group_252" opacity="0.35">
<path id="Vector_84" opacity="0.35" d="M24.5535 5.09876L24.5446 5.01375C24.6915 4.99073 24.75 4.93405 24.8066 4.87915C24.8898 4.79769 24.9694 4.72154 25.2615 4.77112C25.2721 4.77289 25.2828 4.77467 25.2916 4.77644C25.3146 4.77998 25.3359 4.78352 25.3589 4.78883L25.4014 4.79769L25.3925 4.84019C25.3695 4.95531 25.3553 5.02792 25.3553 5.02792L25.3483 5.06157L24.5535 5.09876ZM25.0969 4.84019C24.9694 4.84019 24.9217 4.88624 24.8668 4.93937C24.8473 4.95885 24.8261 4.97833 24.7995 4.99958L25.2775 4.97479C25.2828 4.94999 25.2898 4.91103 25.2987 4.86322C25.2916 4.86144 25.2845 4.86144 25.2757 4.85967C25.2651 4.8579 25.2544 4.85613 25.2456 4.85436C25.1872 4.84551 25.1376 4.84019 25.0969 4.84019Z" fill="#1A1A5A"/>
</g>
</g>
</g>
<g id="Group_253" opacity="0.35">
<g id="Group_254" opacity="0.35">
<g id="Group_255" opacity="0.35">
<path id="Vector_85" opacity="0.35" d="M25.3501 4.82975C25.3271 4.94487 25.3129 5.01748 25.3129 5.01748L24.55 5.05644C24.9253 4.99622 24.7783 4.73235 25.2527 4.81381C25.2864 4.81912 25.3182 4.82444 25.3501 4.82975Z" fill="white"/>
</g>
</g>
<g id="Group_256" opacity="0.35">
<g id="Group_257" opacity="0.35">
<path id="Vector_86" opacity="0.35" d="M24.5535 5.09876L24.5446 5.01375C24.6915 4.99073 24.75 4.93405 24.8066 4.87915C24.8898 4.79769 24.9694 4.72154 25.2615 4.77112C25.2721 4.77289 25.2828 4.77467 25.2916 4.77644C25.3146 4.77998 25.3359 4.78352 25.3589 4.78883L25.4014 4.79769L25.3925 4.84019C25.3695 4.95531 25.3553 5.02792 25.3553 5.02792L25.3483 5.06157L24.5535 5.09876ZM25.0969 4.84019C24.9694 4.84019 24.9217 4.88624 24.8668 4.93937C24.8473 4.95885 24.8261 4.97833 24.7995 4.99958L25.2775 4.97479C25.2828 4.94999 25.2898 4.91103 25.2987 4.86322C25.2916 4.86144 25.2845 4.86144 25.2757 4.85967C25.2651 4.8579 25.2544 4.85613 25.2456 4.85436C25.1872 4.84551 25.1376 4.84019 25.0969 4.84019Z" fill="#1A1A5A"/>
</g>
</g>
</g>
<g id="Group_258">
<g id="Group_259">
<g id="Group_260">
<path id="Vector_87" d="M22.548 36.1514C21.2186 36.1514 19.9495 36.0558 18.7723 35.8698C17.6766 35.6963 16.6552 35.4413 15.7383 35.1119C14.0425 34.5044 12.7344 33.6614 11.9555 32.6732C11.3555 31.9134 10.8421 30.7286 10.5819 29.5049C10.52 29.2144 10.4651 28.6778 10.4191 27.9128C10.3854 27.362 10.3695 26.9015 10.3677 26.8519V26.8342C10.366 26.813 10.366 26.8006 10.366 26.8006C10.366 26.7953 10.366 26.7829 10.3677 26.7687C10.5253 24.2875 11.005 22.2049 12.0228 19.5838C12.6016 18.0979 12.8636 16.7431 12.7822 15.6699C12.745 15.1935 12.7273 14.6781 12.7273 14.138C12.7273 12.0836 12.9946 10.4242 13.5434 9.0694V9.06409L13.5646 9.01627L13.5788 8.98085L13.5805 8.97908C13.8779 8.32558 14.2673 7.72522 14.7417 7.19392C15.2303 6.64668 15.8091 6.16851 16.4641 5.77535C17.7315 5.01205 19.2609 4.56222 21.0151 4.43471C21.0045 4.417 20.9956 4.40106 20.985 4.38335C20.8221 4.10885 20.638 3.79892 20.5725 3.45535C20.4893 3.02146 20.6168 2.64424 20.9549 2.329C21.2222 2.08106 21.5426 1.99782 21.8807 2.08814C22.3515 2.21566 22.7533 2.66195 22.9587 3.09407C23.4012 2.57694 24.1075 1.95178 24.7731 2.22097C25.0492 2.33254 25.2422 2.54152 25.3324 2.82488C25.5094 3.39337 25.2404 4.14427 24.9696 4.65786C26.1166 4.88986 27.1185 5.2777 27.9487 5.81254C28.8054 6.36509 29.5082 7.0912 30.0392 7.97315C30.9526 9.48912 31.3969 11.5045 31.3969 14.1344C31.3969 14.4479 31.3898 14.7614 31.3774 15.066C31.3332 16.0666 31.3403 17.9846 31.8678 19.605C32.5156 21.5956 32.8767 23.0797 33.0378 24.4186C33.0378 24.4239 33.0396 24.4328 33.0396 24.4416C33.1139 25.0703 33.1511 25.6742 33.1582 26.4606V26.4623C33.1582 26.4659 33.1582 26.4694 33.1582 26.4747C33.1582 26.4818 33.1582 26.4907 33.1582 26.4977C33.16 26.5969 33.16 26.6979 33.16 26.7953V26.8378C33.16 28.182 32.9741 29.2782 32.5917 30.1903C32.2377 31.0333 31.7934 32.0108 31.0146 32.93C30.1383 33.9625 28.9789 34.7594 27.469 35.3686C26.1768 35.8964 24.566 36.1514 22.548 36.1514ZM10.8616 26.8395C10.8634 26.9068 10.8793 27.3514 10.9129 27.8827C10.9572 28.6123 11.0103 29.1383 11.0652 29.4022C11.3537 30.7605 11.9148 31.8249 12.3432 32.3686C13.0654 33.2824 14.2974 34.0723 15.9065 34.6479C17.7775 35.3191 20.0114 35.6591 22.548 35.6591C24.5022 35.6591 26.0511 35.4165 27.2867 34.9188C30.3862 33.6685 31.3845 31.8072 32.1404 30.0061C32.4979 29.156 32.6714 28.1217 32.6714 26.8449V26.8024C32.6714 26.7014 32.6714 26.6058 32.6696 26.5101V26.5066C32.6696 26.5031 32.6696 26.4977 32.6696 26.4942C32.6696 26.4871 32.6696 26.4783 32.6696 26.4712C32.6608 25.7008 32.6271 25.1111 32.5528 24.4983L32.551 24.4824C32.3935 23.1754 32.0377 21.7196 31.4022 19.7627C30.8499 18.0678 30.8428 16.0825 30.8889 15.05C30.9013 14.7525 30.9083 14.4461 30.9083 14.1398C30.9083 8.69926 28.8851 5.8214 24.543 5.08289L24.173 5.01914L24.3783 4.70567C24.7164 4.19031 25.0014 3.40753 24.8669 2.97718C24.8226 2.83373 24.7341 2.73987 24.5925 2.68143C24.2066 2.52381 23.6136 3.05334 23.187 3.60057C23.1091 3.70152 22.9817 3.74934 22.856 3.72631C22.7303 3.70329 22.6294 3.61297 22.5905 3.489C22.479 3.12063 22.1179 2.66195 21.7568 2.56454C21.5868 2.5185 21.4346 2.55923 21.2948 2.69028C20.854 3.10115 21.0646 3.54744 21.4134 4.13187C21.5054 4.28595 21.5921 4.43294 21.6452 4.56753L21.7692 4.88631L21.4275 4.90225C17.8235 5.06518 15.1949 6.59178 14.0195 9.20577C14.0177 9.21108 14.0142 9.21639 14.0124 9.2217C13.4796 10.5234 13.2194 12.1314 13.2194 14.138C13.2194 14.664 13.2371 15.1669 13.2743 15.6327C13.3628 16.7962 13.0955 18.1847 12.483 19.7627C11.4829 22.3377 11.0121 24.3796 10.8598 26.8094C10.8598 26.8218 10.8616 26.8307 10.8616 26.8395Z" fill="#1A1A5A"/>
</g>
</g>
</g>
<g id="Group_261">
<g id="Group_262">
<g id="Group_263">
<path id="Vector_88" d="M26.4227 12.8272C26.4776 12.7068 26.5555 12.5988 26.6493 12.5013C26.7413 12.4039 26.8493 12.3207 26.9679 12.2516C27.0865 12.1843 27.2175 12.133 27.3556 12.1029C27.391 12.0958 27.4264 12.0905 27.4618 12.0852C27.4972 12.0816 27.5326 12.0763 27.5697 12.0763C27.6423 12.0728 27.7149 12.0763 27.7875 12.0852C27.9326 12.1046 28.076 12.1507 28.2052 12.2215C28.3327 12.2924 28.446 12.3862 28.5345 12.4925C28.6247 12.5988 28.692 12.7156 28.7433 12.8343C28.7929 12.9547 28.823 13.0787 28.8354 13.2027C28.8442 13.2948 28.777 13.3762 28.6849 13.3851C28.6283 13.3904 28.5752 13.3674 28.5415 13.3266L28.5327 13.316C28.4619 13.231 28.4017 13.1495 28.3362 13.0787C28.2707 13.0061 28.2035 12.9423 28.1362 12.8892C28.0672 12.8361 27.9999 12.7918 27.9291 12.7617C27.8583 12.7298 27.7857 12.7068 27.7078 12.6979C27.6689 12.6908 27.6299 12.6908 27.591 12.6908C27.5715 12.6908 27.5503 12.6926 27.5308 12.6926C27.5113 12.6944 27.4901 12.6979 27.4706 12.6997C27.3892 12.7103 27.306 12.7333 27.2246 12.7652C27.1431 12.7971 27.0635 12.8378 26.9856 12.8874C26.9077 12.937 26.8351 12.9955 26.7626 13.0592L26.7519 13.0681C26.667 13.1442 26.536 13.1371 26.4599 13.0521C26.3997 12.9901 26.3891 12.8998 26.4227 12.8272Z" fill="#1A1A5A"/>
</g>
</g>
</g>
<g id="Group_264">
<g id="Group_265">
<g id="Group_266">
<path id="Vector_89" d="M20.9743 13.0699C20.9035 13.0079 20.8327 12.953 20.7566 12.9034C20.6805 12.8556 20.6026 12.8131 20.5229 12.7795C20.3636 12.7122 20.1972 12.6785 20.0432 12.6856C19.9653 12.6891 19.8928 12.7033 19.8202 12.7263C19.7494 12.7493 19.6803 12.7812 19.6113 12.8237C19.5423 12.8662 19.4732 12.9176 19.406 12.9813C19.3387 13.0433 19.2732 13.1159 19.2006 13.1921L19.1918 13.201C19.1281 13.2683 19.0219 13.2718 18.9546 13.2063C18.9139 13.1673 18.8962 13.1124 18.9033 13.061C18.921 12.9388 18.9599 12.8202 19.0165 12.7051C19.0307 12.6767 19.0484 12.6484 19.0643 12.6201C19.082 12.5917 19.1015 12.5652 19.1192 12.5386C19.1582 12.4855 19.2024 12.4341 19.252 12.3863C19.3511 12.2907 19.4715 12.2127 19.6025 12.1578C19.7334 12.1029 19.8751 12.0746 20.0149 12.0693C20.1547 12.064 20.2928 12.0817 20.422 12.1171C20.5512 12.1525 20.6752 12.2074 20.7867 12.2747C20.8982 12.342 21.0009 12.4253 21.0894 12.5191C21.1779 12.613 21.2522 12.7192 21.3071 12.8361C21.3549 12.9406 21.3089 13.0628 21.2062 13.1106C21.1301 13.1461 21.0433 13.1301 20.9832 13.0788L20.9743 13.0699Z" fill="#1A1A5A"/>
</g>
</g>
</g>
<g id="Group_267">
<g id="Group_268">
<g id="Group_269">
<path id="Vector_90" d="M6.14238 21.2803C6.17425 21.3174 6.20788 21.3564 6.24151 21.3936C7.61159 22.9308 9.58352 24.2077 11.7059 24.4096C11.736 24.4131 11.7679 24.4149 11.798 24.4167C11.805 24.4167 11.8103 24.4185 11.8157 24.4185L12.8282 20.4727L12.853 20.3735C12.853 20.3735 11.2616 19.7129 8.27716 18.9124C7.91606 18.815 7.59212 18.7672 7.30359 18.7584C7.15667 18.753 7.0186 18.7601 6.89115 18.7743C5.49629 18.9425 5.229 20.2247 6.14238 21.2803Z" fill="#575B5A"/>
</g>
</g>
</g>
<g id="Group_270" opacity="0.35">
<g id="Group_271" opacity="0.35">
<g id="Group_272" opacity="0.35">
<path id="Vector_91" opacity="0.35" d="M7.3053 18.7603C7.59029 19.01 8.14257 19.4067 9.1303 19.8335C10.2774 20.3276 11.9218 20.4462 12.8281 20.4728L12.8529 20.3736C12.8529 20.3736 11.2615 19.713 8.2771 18.9126C7.91953 18.8152 7.59383 18.7673 7.3053 18.7603Z" fill="white"/>
</g>
</g>
</g>
<g id="Group_273" opacity="0.3">
<g id="Group_274" opacity="0.3">
<g id="Group_275" opacity="0.3">
<path id="Vector_92" opacity="0.3" d="M6.1424 21.2803C6.17426 21.3175 6.2079 21.3565 6.24153 21.3937C7.61161 22.9309 9.58354 24.2078 11.7059 24.4097C11.736 24.4132 11.7679 24.415 11.798 24.4167C11.0368 24.0625 7.4523 22.3075 6.84514 20.455C6.51767 19.4562 6.65928 18.9886 6.89294 18.7761C5.4963 18.9426 5.22901 20.2248 6.1424 21.2803Z" fill="#1A1A5A"/>
</g>
</g>
</g>
<g id="Group_276">
<g id="Group_277">
<g id="Group_278">
<path id="Vector_93" d="M11.8192 24.6647C11.8139 24.6647 11.8068 24.6647 11.8015 24.6647C11.7625 24.6611 11.7254 24.6594 11.6864 24.6558C10.6403 24.5567 9.59412 24.2078 8.57098 23.6163C7.65936 23.0903 6.792 22.3783 6.06093 21.5584C6.02907 21.5229 5.99544 21.4858 5.95827 21.4415C5.34226 20.7313 5.19357 19.8741 5.57769 19.2596C5.79187 18.9178 6.14944 18.6823 6.61144 18.576C7.09823 18.4644 7.6806 18.4981 8.3444 18.677C11.3094 19.4704 12.9344 20.1416 12.9503 20.1469C13.076 20.1982 13.1344 20.3435 13.083 20.4674C13.0317 20.5932 12.8866 20.6516 12.7627 20.6003C12.7467 20.5932 11.1483 19.9344 8.21695 19.1498C7.14779 18.8629 6.3176 19.001 5.99367 19.5199C5.72638 19.9468 5.85914 20.5737 6.32999 21.1192C6.3654 21.1599 6.39549 21.1953 6.42558 21.2272L6.42735 21.229C7.93196 22.9167 9.86495 23.9864 11.7324 24.1635C11.7661 24.167 11.8015 24.1688 11.8369 24.1724C11.9714 24.1812 12.0741 24.2999 12.0652 24.4345C12.0546 24.5655 11.9466 24.6647 11.8192 24.6647Z" fill="#1A1A5A"/>
</g>
</g>
</g>
<g id="Group_279">
<g id="Group_280">
<g id="Group_281">
<path id="Vector_94" d="M25.4652 14.4692C25.4652 14.4692 25.3785 15.0289 25.1324 15.5194C24.9395 15.9037 24.6509 16.2438 24.2314 16.2438C23.7552 16.2438 23.4331 15.9037 23.2189 15.4946C22.9003 14.889 22.8188 14.1345 22.8188 14.1345L25.4652 14.4692Z" fill="#1A1A5A"/>
</g>
</g>
</g>
<g id="Group_282">
<g id="Group_283">
<g id="Group_284">
<path id="Vector_95" d="M25.1323 15.521C24.9394 15.9053 24.6508 16.2453 24.2313 16.2453C23.7552 16.2453 23.433 15.9053 23.2188 15.4962C23.4684 15.335 23.7976 15.2358 24.1588 15.2358C24.5358 15.2358 24.8792 15.3439 25.1323 15.521Z" fill="#ED2E7A"/>
</g>
</g>
</g>
<g id="Group_285">
<g id="Group_286">
<g id="Group_287">
<path id="Vector_96" d="M24.2313 16.4916C22.8418 16.4916 22.5869 14.2584 22.5762 14.1627L23.0648 14.1096C23.0648 14.1149 23.1214 14.6179 23.3144 15.1102C23.5445 15.7 23.8543 15.9993 24.2313 15.9993C24.5889 15.9993 24.8349 15.6026 24.9783 15.2678C25.1553 14.857 25.2226 14.4355 25.2226 14.4302L25.7076 14.5063C25.7041 14.5258 25.6315 14.9863 25.4332 15.452C25.0668 16.311 24.5783 16.4916 24.2313 16.4916Z" fill="#1A1A5A"/>
</g>
</g>
</g>
<g id="Group_288">
<g id="Group_289">
<g id="Group_290">
<path id="Vector_97" d="M26.1821 13.991C26.1821 14.0017 26.1821 14.0123 26.1821 14.0212C26.1644 14.1469 24.7323 14.3346 24.0455 14.409C23.4277 14.4763 22.7091 14.1079 22.5728 14.0353C22.5568 14.0265 22.5497 14.0229 22.5497 14.0229C22.5497 14.0229 23.0507 13.0666 24.019 12.9497C24.9571 12.8364 26.1555 13.6298 26.1821 13.991Z" fill="#FEC212"/>
</g>
</g>
</g>
<g id="Group_291" opacity="0.35">
<g id="Group_292" opacity="0.35">
<g id="Group_293" opacity="0.35">
<path id="Vector_98" opacity="0.35" d="M26.182 13.9911C26.182 14.0017 26.182 14.0123 26.182 14.0212C26.1643 14.1469 24.7323 14.3346 24.0454 14.409C23.4277 14.4763 22.709 14.1079 22.5727 14.0353C22.9285 13.9716 23.7799 13.8388 24.6809 13.8618C25.3376 13.8759 25.8527 13.9397 26.182 13.9911Z" fill="#1A1A5A"/>
</g>
</g>
</g>
<g id="Group_294">
<g id="Group_295">
<g id="Group_296">
<path id="Vector_99" d="M24.2436 14.7365C24.1782 14.7365 24.1091 14.7365 24.0401 14.7347C23.2772 14.7188 22.7249 14.4567 22.516 14.3575C22.5001 14.3504 22.4859 14.3433 22.4753 14.338C22.408 14.3079 22.3549 14.2495 22.3301 14.1786C22.3054 14.1078 22.3107 14.0281 22.3425 13.9608C22.3478 13.9502 22.3549 13.936 22.362 13.9183C22.4275 13.7784 22.562 13.488 22.8152 13.2152C23.1373 12.8663 23.5356 12.6715 23.9976 12.6326C24.5605 12.5865 25.1216 12.7176 25.5801 13.0009C26.0085 13.2666 26.3129 13.6438 26.4191 14.0352C26.4421 14.122 26.4209 14.2141 26.3625 14.2884C26.2598 14.4195 25.9978 14.5293 25.5889 14.6125C25.3128 14.6727 24.8632 14.7365 24.2436 14.7365ZM22.8789 13.9821C23.1178 14.0848 23.5285 14.2318 24.0507 14.2424C25.0278 14.2637 25.6527 14.1184 25.8916 14.0228C25.6721 13.5606 24.98 13.047 24.0383 13.1231C23.3727 13.178 23.0346 13.6828 22.8789 13.9821Z" fill="#1A1A5A"/>
</g>
</g>
</g>
<g id="Group_297">
<g id="Group_298">
<g id="Group_299">
<path id="Vector_100" d="M28.7366 21.2081C28.5277 21.256 28.3153 21.3002 28.0993 21.3374C27.4284 21.4543 26.5805 21.5535 25.6459 21.6243C23.1058 21.8156 19.9142 21.7943 17.7918 21.3374C14.8906 20.714 11.7804 20.3563 11.7433 19.7223C11.7132 19.1998 12.1062 18.6703 12.2159 17.9725C12.2407 17.8238 12.2495 17.6679 12.2407 17.5014C12.2088 16.9489 12.2 16.345 12.3097 15.9129C12.3876 15.61 12.5221 15.3904 12.7469 15.332C12.7469 15.332 18.2273 18.0416 25.0954 17.3934C25.2636 17.3775 25.4317 17.3598 25.6017 17.3403C26.623 17.2199 27.4585 17.0977 28.14 16.9737C31.6449 16.345 31.1138 15.7411 31.1138 15.7411L31.1333 14.9778C31.1333 14.9778 31.5882 15.0238 31.8715 15.5587C31.9051 15.6207 31.9139 15.7995 31.9157 16.0475C31.9193 16.6478 31.8732 17.652 31.9936 18.3568C32.0379 18.6172 32.1051 18.8368 32.206 18.9785C32.6556 19.6107 30.9386 20.6946 28.7366 21.2081Z" fill="#A4BC46"/>
</g>
</g>
<g id="Group_300">
<g id="Group_301">
<path id="Vector_101" d="M22.5905 21.7798C20.8982 21.7798 19.144 21.6717 17.7828 21.3795C17.0163 21.2148 16.2463 21.0696 15.5011 20.9315C14.4939 20.742 13.5415 20.5649 12.8583 20.3789C12.0723 20.1646 11.7148 19.9645 11.7024 19.7254C11.6864 19.4314 11.7997 19.1339 11.9201 18.8187C12.021 18.553 12.1272 18.2785 12.175 17.9668C12.1998 17.8092 12.2086 17.6587 12.1998 17.5046C12.1715 17.0016 12.152 16.3641 12.2688 15.9018C12.3573 15.5547 12.5149 15.3475 12.7379 15.2891L12.7538 15.2855L12.768 15.2926C12.7822 15.2997 14.1611 15.9762 16.3614 16.5642C18.3917 17.1079 21.5532 17.6835 25.0934 17.3505C25.2846 17.3328 25.4457 17.3151 25.5997 17.2974C26.5573 17.1858 27.4105 17.0618 28.1363 16.9326C30.6215 16.4863 31.0304 16.0541 31.0924 15.8894C31.1207 15.8151 31.0871 15.7726 31.0853 15.7708L31.0747 15.7584V15.7424L31.0959 14.9331L31.142 14.9384C31.1614 14.9402 31.6234 14.9933 31.9155 15.5406C31.9491 15.6043 31.9633 15.7513 31.9651 16.0488C31.9651 16.1799 31.9633 16.3304 31.9615 16.4898C31.9544 17.0742 31.9474 17.8021 32.0412 18.3493C32.089 18.6239 32.158 18.8275 32.2465 18.9533C32.335 19.079 32.3492 19.2225 32.289 19.3801C32.0412 20.0336 30.5189 20.8376 28.7487 21.2502C28.5381 21.2998 28.3239 21.3423 28.1097 21.3795C27.4371 21.4964 26.5874 21.5956 25.6528 21.6664C24.7359 21.7355 23.6755 21.7798 22.5905 21.7798ZM12.745 15.3776C12.5627 15.4343 12.4299 15.6167 12.352 15.9231C12.2369 16.38 12.2582 17.0406 12.2847 17.4993C12.2936 17.6587 12.2865 17.8163 12.26 17.9792C12.2104 18.2998 12.1024 18.5796 11.9998 18.8488C11.8776 19.1675 11.7714 19.4438 11.7873 19.7201C11.8121 20.1522 13.6123 20.4887 15.517 20.8464C16.2622 20.9864 17.034 21.1298 17.8022 21.2963C20.0255 21.7744 23.3109 21.7585 25.6439 21.5814C26.575 21.5106 27.4229 21.4114 28.0938 21.2945C28.3062 21.2573 28.5204 21.2148 28.7275 21.1652C29.5842 20.9651 30.4109 20.6676 31.057 20.324C31.6854 19.9911 32.0943 19.6439 32.2058 19.3482C32.2554 19.2189 32.2448 19.102 32.1739 19.0011C32.0766 18.8629 32.004 18.6522 31.9544 18.3617C31.8589 17.8057 31.8677 17.0742 31.8748 16.4863C31.8766 16.3269 31.8783 16.1763 31.8783 16.0453C31.8783 15.9373 31.8766 15.6486 31.8394 15.5777C31.6217 15.1704 31.2995 15.0571 31.1809 15.0287L31.1632 15.7265C31.1809 15.7548 31.2092 15.8204 31.1774 15.9107C31.0818 16.1834 30.4799 16.5961 28.154 17.014C27.4265 17.1451 26.5715 17.2673 25.6121 17.3806C25.4581 17.3983 25.297 17.416 25.104 17.4337C23.5339 17.5825 21.9072 17.5648 20.268 17.3842C18.9564 17.2389 17.6341 16.991 16.3383 16.6439C14.2531 16.0896 12.9007 15.452 12.745 15.3776Z" fill="#1A1A5A"/>
</g>
</g>
</g>
<g id="Group_302" opacity="0.35">
<g id="Group_303" opacity="0.35">
<g id="Group_304" opacity="0.35">
<path id="Vector_102" opacity="0.35" d="M26.3289 21.5654C26.49 21.5495 26.6475 21.5335 26.8015 21.5176C26.6475 21.5353 26.49 21.5512 26.3289 21.5654Z" fill="black"/>
</g>
</g>
<g id="Group_305" opacity="0.35">
<g id="Group_306" opacity="0.35">
<path id="Vector_103" opacity="0.35" d="M26.3342 21.6096L26.3254 21.5246C26.4865 21.5087 26.644 21.4927 26.7962 21.4768L26.8051 21.5618C26.6529 21.5777 26.4935 21.5937 26.3342 21.6096Z" fill="#1A1A5A"/>
</g>
</g>
</g>
<g id="Group_307" opacity="0.35">
<g id="Group_308" opacity="0.35">
<g id="Group_309" opacity="0.35">
<path id="Vector_104" opacity="0.35" d="M27.2743 21.461C27.4212 21.4416 27.5628 21.4221 27.6991 21.4026C27.5628 21.4238 27.4212 21.4433 27.2743 21.461Z" fill="black"/>
</g>
</g>
<g id="Group_310" opacity="0.35">
<g id="Group_311" opacity="0.35">
<path id="Vector_105" opacity="0.35" d="M27.2795 21.5036L27.2689 21.4186C27.4353 21.3973 27.5698 21.3778 27.692 21.3601L27.7044 21.4451C27.5787 21.4646 27.4389 21.4841 27.2795 21.5036Z" fill="#1A1A5A"/>
</g>
</g>
</g>
<g id="Group_312" opacity="0.35">
<g id="Group_313" opacity="0.35">
<g id="Group_314" opacity="0.35">
<path id="Vector_106" opacity="0.35" d="M27.9698 21.3604C27.8831 21.3745 27.7946 21.3887 27.7043 21.4029C27.7946 21.3869 27.8831 21.3745 27.9698 21.3604Z" fill="black"/>
</g>
</g>
<g id="Group_315" opacity="0.35">
<g id="Group_316" opacity="0.35">
<path id="Vector_107" opacity="0.35" d="M27.7097 21.4449L27.6973 21.3599L27.7504 21.351C27.8229 21.3404 27.8937 21.328 27.9628 21.3174L27.9769 21.4024C27.876 21.4183 27.7911 21.4325 27.7097 21.4449Z" fill="#1A1A5A"/>
</g>
</g>
</g>
<g id="Group_317" opacity="0.6">
<g id="Group_318" opacity="0.6">
<g id="Group_319" opacity="0.6">
<path id="Vector_108" opacity="0.6" d="M31.919 16.0469C31.1632 17.4566 26.1449 18.6042 19.9742 17.8799C14.9682 17.2919 13.0335 16.4117 12.3113 15.9141C12.3892 15.6112 12.5237 15.3916 12.7485 15.3332C12.7485 15.3332 18.5014 18.1774 25.6032 17.3415C31.873 16.6048 31.1154 15.7423 31.1154 15.7423L31.1349 14.979C31.1349 14.979 31.5898 15.025 31.873 15.5599C31.9084 15.6201 31.9173 15.799 31.919 16.0469Z" fill="white"/>
</g>
</g>
</g>
<g id="Group_320" opacity="0.3">
<g id="Group_321" opacity="0.3">
<g id="Group_322" opacity="0.3">
<path id="Vector_109" opacity="0.3" d="M28.7363 21.2075C28.6638 21.2252 28.5912 21.2411 28.5168 21.2553C28.4531 21.2695 28.3876 21.2819 28.3221 21.2943C28.2478 21.3084 28.1734 21.3226 28.0991 21.335C28.0566 21.3421 28.0141 21.3492 27.9699 21.3562C27.8831 21.3704 27.7946 21.3846 27.7043 21.3987C27.7026 21.3987 27.7008 21.3987 27.699 21.3987C27.5627 21.4182 27.4211 21.4377 27.2742 21.4572C27.2689 21.4572 27.2636 21.459 27.2565 21.459C27.1627 21.4714 27.0671 21.4837 26.9697 21.4944C26.9131 21.4997 26.8564 21.5068 26.7998 21.5139C26.6458 21.5316 26.49 21.5475 26.3272 21.5617C26.1059 21.5829 25.8776 21.6024 25.6439 21.6201C23.1038 21.8114 19.9122 21.7901 17.7898 21.3332C14.8886 20.7098 11.7785 20.3521 11.7413 19.7181C11.7112 19.1956 11.9891 18.9849 12.0988 18.2871C12.2847 18.5651 12.7449 18.8025 13.3698 19.0717C15.2107 19.8633 20.8805 20.8143 25.127 20.3981C25.1288 20.3981 25.1306 20.3981 25.1323 20.3981C25.3925 20.3733 25.5943 20.1608 25.612 19.9005C25.628 19.672 25.6545 19.4489 25.6952 19.2488C25.9802 17.8922 25.8811 17.5291 25.0952 17.5486C24.9359 17.5521 24.9571 17.4902 25.0934 17.3892C25.2616 17.3733 25.4297 17.3556 25.5997 17.3361C26.621 17.2157 27.4565 17.0935 28.138 16.9695L28.3699 18.1667L28.5788 19.9288L28.7363 21.2075Z" fill="#1A1A5A"/>
</g>
</g>
</g>
<g id="Group_323" opacity="0.3">
<g id="Group_324" opacity="0.3">
<g id="Group_325" opacity="0.3">
<path id="Vector_110" opacity="0.3" d="M28.7363 21.2078L28.584 19.9327C30.2869 19.5962 31.4764 19.1198 31.9951 18.3547C32.0393 18.6151 32.1066 18.8347 32.2075 18.9764C32.6554 19.6104 30.9383 20.6942 28.7363 21.2078Z" fill="#1A1A5A"/>
</g>
</g>
</g>
<g id="Group_326">
<g id="Group_327">
<g id="Group_328">
<path id="Vector_111" d="M22.6028 21.9834C20.6786 21.9834 18.9669 21.8417 17.7402 21.5779C16.8587 21.3884 15.9665 21.2343 15.1027 21.0855C14.1557 20.9208 13.26 20.7668 12.6192 20.6003C11.9944 20.4373 11.4155 20.2284 11.4155 19.8016C11.4155 19.1516 11.5979 18.7744 11.7607 18.4414C11.9041 18.1457 12.0174 17.9137 11.9944 17.5188C11.9306 16.4278 11.9643 15.2855 12.6829 15.096L12.7714 15.073L12.8546 15.1137C12.8688 15.1208 14.3062 15.8239 16.5861 16.4172C18.6855 16.9627 21.9478 17.5241 25.573 17.099C27.5804 16.8635 29.0655 16.5908 29.9913 16.2915C30.6356 16.0825 30.8268 15.916 30.8799 15.8505L30.8657 15.8345L30.8941 14.71L31.1578 14.7365C31.1826 14.7383 31.7473 14.8021 32.0889 15.4449C32.1668 15.5901 32.1668 15.8558 32.1597 16.4934C32.1509 17.2265 32.1367 18.4556 32.4075 18.8381C32.5385 19.0241 32.558 19.2508 32.4642 19.4775C32.2517 19.9893 31.5171 20.4303 30.9383 20.7101C30.1311 21.0997 29.1363 21.4096 28.138 21.5832C26.8298 21.8116 24.9446 21.9604 23.0984 21.9834C22.9338 21.9817 22.7674 21.9834 22.6028 21.9834ZM11.9094 19.7839C11.9236 19.8016 11.9802 19.8582 12.1625 19.9362C12.3342 20.0088 12.5714 20.0814 12.8865 20.1593C13.4937 20.3081 14.3168 20.4497 15.1894 20.6003C16.0179 20.7437 16.956 20.9049 17.8464 21.0979C20.7848 21.7302 25.7501 21.4982 28.0583 21.0962C29.0124 20.9297 29.9612 20.6339 30.7294 20.2638C31.418 19.9308 31.8977 19.566 32.0146 19.2862C32.0517 19.1977 32.034 19.1534 32.0092 19.118C31.6747 18.6433 31.6588 17.6445 31.6711 16.4845C31.6747 16.1622 31.68 15.7637 31.6534 15.6628C31.5685 15.5051 31.4658 15.4042 31.3738 15.3387L31.3649 15.684C31.3968 15.7672 31.4056 15.8753 31.3614 15.9939C31.2516 16.2826 30.8587 16.5252 30.1276 16.7608C29.1717 17.0689 27.66 17.3452 25.635 17.5843C23.9976 17.7773 22.2948 17.7897 20.5777 17.6232C19.2041 17.4904 17.8163 17.2425 16.4533 16.8865C14.4513 16.3658 13.1166 15.7761 12.7431 15.6025C12.6121 15.6964 12.5449 15.9479 12.5112 16.1586C12.444 16.5766 12.4652 17.1185 12.4865 17.4904C12.5165 18.0129 12.3572 18.3405 12.2032 18.6557C12.0545 18.9639 11.9112 19.2579 11.9094 19.7839Z" fill="#1A1A5A"/>
</g>
</g>
</g>
<g id="Group_329">
<g id="Group_330">
<g id="Group_331">
<path id="Vector_112" d="M30.7471 27.091C30.7418 27.0998 30.7365 27.1104 30.7294 27.1193C30.4498 27.5532 28.8212 27.879 27.8105 27.7267C27.5485 27.6878 27.329 27.6152 27.1839 27.5071C26.467 26.9634 27.2989 25.4245 26.9378 24.0856C26.8529 23.7721 26.7644 23.5171 26.6794 23.278C26.3997 22.5023 26.143 21.9197 26.0917 20.1575C26.051 18.7708 26.598 17.9243 26.2457 17.5028C26.2103 17.4603 26.159 17.4302 26.097 17.4072C25.7607 17.2814 25.1288 17.3965 25.2173 17.2814C25.9271 16.3517 26.467 16.5589 26.7502 16.5801C27.3273 16.6244 27.522 16.658 28.3699 16.3322C28.8637 16.1427 29.4886 16.2649 29.6833 16.7466C29.6975 16.7785 29.7081 16.8139 29.7169 16.8493C30.0055 17.9739 29.9842 19.04 29.9648 20.0158C29.9453 21.0165 29.9311 21.9232 30.2515 22.7095C30.2781 22.7715 30.3046 22.8353 30.3365 22.8955C30.3772 22.9787 30.4161 23.0637 30.4533 23.1505C31.1047 24.6859 31.0144 26.5614 30.7471 27.091Z" fill="#A4BC46"/>
</g>
</g>
</g>
<g id="Group_332" opacity="0.3">
<g id="Group_333" opacity="0.3">
<g id="Group_334" opacity="0.3">
<path id="Vector_113" opacity="0.3" d="M30.7472 27.0928C30.7419 27.1016 30.7366 27.1123 30.7295 27.1211C30.2091 27.3124 29.5895 27.5302 29.5223 27.5409C29.4497 27.5532 28.5381 27.6595 27.8106 27.7286C27.5486 27.6896 27.3291 27.617 27.1839 27.509C26.467 26.9653 27.299 25.4263 26.9379 24.0874C26.8529 23.774 26.7644 23.5189 26.6794 23.2798C26.7538 23.1063 26.7998 22.9965 26.7998 22.9965C26.7998 22.9965 27.43 23.7297 27.5273 25.1854C27.6265 26.6394 30.179 26.2268 30.5047 25.4316C30.6711 25.026 30.356 23.294 30.0993 22.7007C30.0215 22.5219 30.1011 22.5661 30.2516 22.7149C30.2781 22.7769 30.3047 22.8406 30.3365 22.9009C31.1154 24.4717 31.0287 26.5314 30.7472 27.0928Z" fill="#1A1A5A"/>
</g>
</g>
</g>
<g id="Group_335" opacity="0.6">
<g id="Group_336" opacity="0.6">
<g id="Group_337" opacity="0.6">
<path id="Vector_114" opacity="0.6" d="M29.7612 16.9537C29.1257 16.3427 27.6831 17.3345 26.9166 17.1255C26.4174 16.9891 26.1944 17.2176 26.097 17.4071C25.7607 17.2813 25.1288 17.3965 25.2173 17.2813C25.9271 16.3516 26.467 16.5588 26.7502 16.58C27.3273 16.6243 27.522 16.658 28.3699 16.3321C28.8637 16.1461 29.5665 16.472 29.7612 16.9537Z" fill="white"/>
</g>
</g>
</g>
<g id="Group_338">
<g id="Group_339">
<g id="Group_340">
<path id="Vector_115" d="M28.3681 28.0117C28.3327 28.0117 28.2973 28.0117 28.2636 28.0099C27.7025 27.9975 27.2901 27.8948 27.0369 27.7035C26.5307 27.3192 26.6174 26.6197 26.7077 25.8776C26.775 25.3286 26.8528 24.707 26.7024 24.1509C26.6015 23.7772 26.4953 23.485 26.3926 23.2052C26.1377 22.5074 25.897 21.8468 25.8474 20.1679C25.8279 19.5003 25.9377 18.9601 26.0244 18.5262C26.1059 18.1207 26.1713 17.8001 26.0581 17.6637C26.0563 17.662 26.0191 17.6283 25.8704 17.6071C25.7501 17.5894 25.6102 17.5894 25.4881 17.5876C25.2456 17.5858 25.0721 17.5841 24.9907 17.4176C24.9464 17.3273 24.9588 17.2175 25.0225 17.1342C25.7377 16.1974 26.3484 16.2806 26.6776 16.3249C26.7148 16.3302 26.7449 16.3337 26.7697 16.3355L26.8475 16.3408C27.3414 16.3798 27.5255 16.3939 28.2831 16.1035C28.6743 15.953 29.2142 15.9955 29.6266 16.2098C29.9293 16.3656 30.1258 16.5923 30.1949 16.865C30.4976 18.0516 30.4108 19.1567 30.3347 20.1307C30.255 21.1526 30.186 22.0346 30.556 22.7855C30.9118 23.5063 31.1348 24.4201 31.1826 25.3587C31.2233 26.1326 31.1366 26.8552 30.9631 27.1988C30.7914 27.5406 30.1984 27.7407 29.7311 27.8505C29.2974 27.955 28.8053 28.0117 28.3681 28.0117ZM26.4333 17.3467C26.6988 17.6637 26.6139 18.087 26.5059 18.6219C26.4227 19.031 26.32 19.5392 26.3377 20.152C26.3855 21.7512 26.6015 22.3463 26.8528 23.0352C26.9591 23.3256 27.0688 23.6267 27.175 24.0216C27.3503 24.6698 27.2671 25.3428 27.1945 25.9378C27.1184 26.5612 27.0511 27.0978 27.3326 27.3103C27.6636 27.5618 28.6902 27.5902 29.6231 27.3741C30.2781 27.2218 30.4975 27.0394 30.5276 26.9809C30.6374 26.7649 30.7347 26.1734 30.694 25.3871C30.648 24.514 30.4444 23.6674 30.117 23.0068C29.6851 22.1337 29.7629 21.1438 29.8461 20.0953C29.924 19.1124 30.0037 18.0959 29.7205 16.989C29.678 16.8208 29.524 16.711 29.4018 16.649C29.1151 16.5002 28.7186 16.4648 28.4601 16.5657C27.5998 16.8969 27.352 16.8774 26.8104 16.8349L26.7325 16.8296C26.6918 16.8261 26.6528 16.8208 26.6103 16.8154C26.3873 16.7853 26.097 16.7446 25.7093 17.1023C25.9784 17.1112 26.2722 17.1555 26.4333 17.3467Z" fill="#1A1A5A"/>
</g>
</g>
</g>
<g id="Group_341">
<g id="Group_342">
<g id="Group_343">
<path id="Vector_116" d="M30.9065 8.99138C26.7025 9.73166 21.408 9.79541 17.6465 9.71572C17.6323 9.71572 17.6181 9.71572 17.6022 9.71572C17.404 9.7104 17.2092 9.70686 17.0216 9.70155C16.9048 9.69801 15.7029 14.3982 15.5896 14.3929C12.1856 14.253 12.8689 9.51382 12.8689 9.51382C12.8689 9.51382 12.86 9.30662 12.8636 8.95773C12.8724 8.04213 12.9645 6.14717 13.5203 4.42222C13.9433 3.1046 14.6372 1.8897 15.7701 1.28579C17.2128 0.517181 20.1246 0.256845 22.7533 0.191318C25.5076 0.12225 27.5698 0.549059 28.901 1.40976C29.3594 1.70552 29.7188 2.13764 29.9984 2.64591C31.2889 4.99248 30.9065 8.99138 30.9065 8.99138Z" fill="#A4BC46"/>
</g>
</g>
</g>
<g id="Group_344" opacity="0.35">
<g id="Group_345" opacity="0.35">
<g id="Group_346" opacity="0.35">
<path id="Vector_117" opacity="0.35" d="M29.9967 2.64591C29.763 2.90625 27.3609 1.15474 24.95 1.0715C18.4802 0.848357 15.963 1.91095 13.5185 4.42222C13.9416 3.1046 14.6354 1.8897 15.7683 1.28579C17.211 0.517181 20.1229 0.256845 22.7515 0.191318C25.5076 0.12225 27.5698 0.549059 28.9009 1.40976C29.3594 1.70552 29.717 2.13764 29.9967 2.64591Z" fill="white"/>
</g>
</g>
</g>
<g id="Group_347" opacity="0.3">
<g id="Group_348" opacity="0.3">
<g id="Group_349" opacity="0.3">
<path id="Vector_118" opacity="0.3" d="M17.6022 9.7139C17.4039 9.70858 17.2092 9.70504 17.0216 9.69973C16.9048 9.69619 15.7029 14.3964 15.5896 14.3911C12.1856 14.2512 12.8689 9.512 12.8689 9.512C12.8689 9.512 12.86 9.3048 12.8636 8.95591C12.9698 9.83964 13.2459 10.5108 13.8354 10.5321C15.1771 10.5781 16.9844 6.3313 16.9844 6.3313L17.6022 9.7139Z" fill="#1A1A5A"/>
</g>
</g>
</g>
<g id="Group_350">
<g id="Group_351">
<g id="Group_352">
<path id="Vector_119" d="M12.5131 10.8828C12.5131 10.8633 12.4936 8.87804 12.8653 6.70326C13.0848 5.41929 13.3963 4.31773 13.7893 3.43223C14.2938 2.29703 14.9399 1.50539 15.7099 1.07858C16.3967 0.697821 17.4606 0.412691 18.8714 0.230279C20.0096 0.0832862 21.3974 0.00359151 22.8843 4.95195e-05C24.7818 -0.00526346 27.4618 0.416233 29.2921 1.60988C30.2639 2.2439 30.8446 3.72091 31.0216 6.00017C31.1508 7.66136 31.0127 9.12066 31.0056 9.18088L30.5171 9.13306C30.5188 9.11889 30.6569 7.64897 30.5312 6.03028C30.3684 3.94405 29.8462 2.55736 29.0231 2.01898C27.283 0.883775 24.7128 0.485302 22.8843 0.488844C20.969 0.494157 17.5208 0.632294 15.9453 1.50539C15.2709 1.87907 14.6974 2.59101 14.2372 3.62527C13.8601 4.47358 13.561 5.53263 13.3486 6.77587C12.9839 8.90637 13.0034 10.8545 13.0034 10.8739L12.5131 10.8828Z" fill="#1A1A5A"/>
</g>
</g>
</g>
<g id="Group_353">
<g id="Group_354">
<g id="Group_355">
<path id="Vector_120" d="M18.0076 9.99565C17.5173 9.97971 17.1508 9.83449 16.9172 9.56529C16.6623 9.27131 16.5702 8.83919 16.6357 8.24413C16.6605 8.01213 16.703 7.78368 16.7472 7.54105C16.8499 6.97964 16.9667 6.34563 16.9243 5.39283L17.4146 5.37158C17.4588 6.37928 17.3367 7.0434 17.2287 7.6296C17.1862 7.8616 17.1455 8.0812 17.1225 8.29726C17.073 8.74887 17.1278 9.05879 17.2871 9.24297C17.4287 9.40591 17.6695 9.49268 18.0217 9.50331L18.0076 9.99565Z" fill="#1A1A5A"/>
</g>
</g>
</g>
<g id="Group_356">
<g id="Group_357">
<g id="Group_358">
<path id="Vector_121" d="M16.9313 9.56153C16.9313 9.56153 17.6853 14.136 15.9825 15.3828C14.7327 16.2984 12.2475 15.8733 12.3112 13.1283C12.3466 11.5751 12.582 10.6861 12.7502 10.3461C12.7502 10.3461 12.9095 14.0829 14.2814 13.6437C16.1276 13.0504 14.7416 10.3213 15.3735 9.12941C16.0019 7.93576 16.8374 9.20202 16.9313 9.56153Z" fill="white"/>
</g>
</g>
</g>
<g id="Group_359" opacity="0.3">
<g id="Group_360" opacity="0.3">
<g id="Group_361" opacity="0.3">
<path id="Vector_122" opacity="0.3" d="M15.9825 15.3812C14.793 16.2525 12.4865 15.909 12.3184 13.511C13.0016 14.9615 14.793 15.1191 15.7188 14.3204C16.9136 13.2861 16.2658 9.59892 16.0728 8.6355C16.4994 8.71342 16.8729 9.32796 16.9313 9.55996C16.9313 9.56173 17.6854 14.1362 15.9825 15.3812Z" fill="#1A1A5A"/>
</g>
</g>
</g>
<g id="Group_362">
<g id="Group_363">
<g id="Group_364">
<path id="Vector_123" d="M14.5699 16.0417C14.0442 16.0417 13.5078 15.9142 13.0547 15.6539C12.1413 15.1332 11.7023 14.1946 11.8173 13.0133C11.9235 11.933 12.3431 10.6136 12.5272 10.2364L13.0139 9.24995L12.9927 10.3497C12.9927 10.3621 12.9715 11.5912 13.1697 12.5334C13.3414 13.3445 13.8477 13.4507 14.2442 13.3976C14.8159 13.3215 14.8496 12.7423 14.7894 11.5345C14.7522 10.796 14.715 10.0327 15.0036 9.48726C15.4036 8.73105 15.9594 8.72219 16.2568 8.78418C16.6817 8.87273 17.1348 9.24286 17.172 9.52445C17.1879 9.62717 17.3614 10.734 17.3384 12.0056C17.3047 13.8103 16.8958 15.0128 16.1241 15.5777C15.7081 15.8876 15.147 16.0417 14.5699 16.0417ZM12.5572 11.7187C12.4475 12.1491 12.3484 12.629 12.3059 13.0611C12.1837 14.3132 12.7767 14.9313 13.2972 15.227C14.0778 15.6733 15.193 15.6539 15.8355 15.1828C16.4675 14.7205 16.818 13.619 16.8481 11.9985C16.8711 10.796 16.7064 9.71749 16.6887 9.60946C16.6356 9.5156 16.3506 9.26234 16.0497 9.25526C15.8125 9.24818 15.6072 9.40579 15.4408 9.71926C15.216 10.1461 15.2496 10.8403 15.2833 11.5133C15.3098 12.0517 15.3346 12.5599 15.239 12.9814C15.1169 13.5163 14.8053 13.8209 14.3132 13.8882C13.9362 13.9395 13.591 13.8652 13.3149 13.6739C13.0015 13.4578 12.7927 13.1089 12.6935 12.6379C12.628 12.3403 12.5856 12.0216 12.5572 11.7187Z" fill="#1A1A5A"/>
</g>
</g>
</g>
<g id="Group_365">
<g id="Group_366">
<g id="Group_367">
<path id="Vector_124" d="M30.7401 8.27072C30.4056 9.24123 29.7329 9.44666 29.3116 9.53875C28.8904 9.62907 19.1387 9.78492 18.0872 9.75127C17.0375 9.71762 16.7809 9.14028 16.8818 8.27072C16.9473 7.70401 17.1243 7.14791 17.1809 6.32086C17.2004 6.04281 17.2057 5.73289 17.1898 5.38223C17.0977 3.3757 16.8641 2.84086 18.3952 2.21924C21.8045 0.834324 28.724 2.14132 29.4002 2.52385C29.8675 2.78773 30.2215 3.31017 30.4711 3.9495V3.95127C31.0216 5.35036 31.0747 7.30199 30.7401 8.27072Z" fill="white"/>
</g>
</g>
</g>
<g id="Group_368" opacity="0.3">
<g id="Group_369" opacity="0.3">
<g id="Group_370" opacity="0.3">
<path id="Vector_125" opacity="0.3" d="M30.7401 8.27062C30.4056 9.24113 29.7329 9.44656 29.3116 9.53865C28.8903 9.62898 19.1387 9.78482 18.0872 9.75117C17.0375 9.71753 16.7809 9.14018 16.8818 8.27062C16.9473 7.70391 17.1243 7.14781 17.1809 6.32076C17.5279 9.59356 27.1574 8.41053 29.2939 7.56754C30.8924 6.93707 30.7224 5.04387 30.4728 3.95117C31.0216 5.35026 31.0747 7.30189 30.7401 8.27062Z" fill="#1A1A5A"/>
</g>
</g>
</g>
<g id="Group_371">
<g id="Group_372">
<g id="Group_373">
<path id="Vector_126" d="M14.9204 8.96648L16.887 8.90627L17.0977 6.21436L15.0797 7.06089L14.9204 8.96648Z" fill="#A4BC46"/>
</g>
</g>
</g>
<g id="Group_374">
<g id="Group_375">
<g id="Group_376">
<path id="Vector_127" d="M14.8001 9.26609C13.1628 9.26609 12.7397 8.9845 12.6565 8.91189L12.984 8.54529C12.984 8.54529 12.9804 8.54175 12.9716 8.53467C12.9733 8.53644 13.1433 8.64978 13.7327 8.72062C14.4992 8.81094 15.5861 8.78969 16.9597 8.65333L17.0075 9.14212C16.0976 9.23244 15.3736 9.26609 14.8001 9.26609Z" fill="#1A1A5A"/>
</g>
</g>
</g>
<g id="Group_377">
<g id="Group_378">
<g id="Group_379">
<path id="Vector_128" d="M18.5333 10.0009C18.3191 10.0009 18.1633 9.99909 18.0819 9.99732C17.542 9.97961 17.1597 9.83262 16.9119 9.54572C16.6587 9.25173 16.5667 8.82493 16.634 8.24404C16.6605 8.01558 16.6994 7.79244 16.7402 7.55512C16.8375 6.99018 16.949 6.35085 16.942 5.38566C16.942 5.27586 16.9366 5.15366 16.9313 5.02438C16.9136 4.53027 16.8906 3.91396 17.0517 3.34193C17.2482 2.6477 17.6854 2.16068 18.351 1.89149C20.3796 1.06975 23.3463 1.23268 24.9359 1.40092C27.0229 1.62407 29.0921 2.10755 29.6497 2.50425C30.5012 3.10993 31.0074 4.08221 31.1543 5.39451C31.2818 6.53503 31.1083 7.73222 31.0233 8.3078C30.949 8.82315 30.7313 9.20746 30.3773 9.44831C30.0834 9.65021 29.7577 9.71042 29.5205 9.75647C29.4763 9.76532 29.4355 9.77241 29.4001 9.77949C28.9594 9.87512 20.6999 10.0009 18.5333 10.0009ZM22.4471 1.75335C21.1248 1.75335 19.6697 1.88795 18.5386 2.34663C17.3438 2.83012 17.3898 4.03616 17.4252 5.00489C17.4305 5.13772 17.4341 5.26346 17.4358 5.38034C17.4429 6.38804 17.3278 7.05216 17.2269 7.63659C17.188 7.86682 17.1491 8.08465 17.1243 8.29894C17.0729 8.73638 17.1261 9.03744 17.2854 9.2234C17.4358 9.39873 17.7084 9.49259 18.0979 9.50499C19.0803 9.53687 28.8142 9.38456 29.2975 9.29778C29.34 9.28893 29.3824 9.28007 29.4302 9.27122C29.8692 9.18798 30.4162 9.08349 30.5401 8.23519C30.7171 7.01497 31.1331 4.16013 29.3683 2.9045C28.9965 2.63885 27.2317 2.13943 24.8881 1.88972C24.2491 1.82065 23.3799 1.75335 22.4471 1.75335Z" fill="#1A1A5A"/>
</g>
</g>
</g>
<g id="Group_380">
<g id="Group_381">
<g id="Group_382">
<path id="Vector_129" d="M31.7526 15.3688L31.4127 15.0146C33.2537 13.2454 30.4816 8.90642 30.4533 8.86215L30.8658 8.59473C30.8958 8.64254 31.6216 9.76889 32.1066 11.1538C32.3969 11.9791 32.5385 12.7247 32.5315 13.3693C32.5226 14.207 32.2606 14.88 31.7526 15.3688Z" fill="#1A1A5A"/>
</g>
</g>
</g>
</g>
</g>
<defs>
<clipPath id="clip0_11_48">
<rect width="55.9362" height="39.2664" fill="white"/>
</clipPath>
</defs>
</svg>
